<svg width="14" height="15" viewBox="0 0 14 15" fill="none" xmlns="http://www.w3.org/2000/svg">
<path fill-rule="evenodd" clip-rule="evenodd" d="M4.02879 4.76996C4.9334 6.5723 7.44182 9.08075 9.24413 9.9853L10.5004 8.78619C10.8733 8.43031 11.4634 8.43726 11.8279 8.80164L13.7218 10.6955C13.9161 10.8899 14.0101 11.1302 13.9991 11.4048C13.9882 11.6795 13.8754 11.9117 13.6663 12.0899L11.4102 14.0139C7.27887 14.0747 -0.0626127 6.86143 0.000403042 2.60406L1.92428 0.347808C2.10266 0.138632 2.33467 0.0259188 2.60931 0.0150112C2.88395 0.00410352 3.12426 0.0981299 3.31865 0.292405L5.21251 2.18627C5.57699 2.55074 5.58386 3.14086 5.22797 3.51375L4.02879 4.76996ZM7.92786 0.978845C9.24308 0.978845 10.4339 1.51188 11.296 2.37387C12.1579 3.23586 12.691 4.42657 12.691 5.74196C12.691 5.9518 12.8611 6.12189 13.0709 6.12189C13.2807 6.12189 13.4508 5.95179 13.4508 5.74196C13.4508 4.2169 12.8327 2.83617 11.8333 1.83668C10.8339 0.837272 9.45298 0.218898 7.928 0.218898C7.71816 0.218898 7.54807 0.388998 7.54807 0.598829C7.54807 0.808669 7.71806 0.978874 7.92789 0.978874L7.92786 0.978845ZM11.6599 5.74176C11.6599 4.71122 11.2422 3.77816 10.5669 3.10282C9.89158 2.4275 8.95861 2.00979 7.92795 2.00979C7.71811 2.00979 7.54801 2.17989 7.54801 2.38972C7.54801 2.59955 7.71811 2.76965 7.92795 2.76965C8.74865 2.76965 9.49175 3.10234 10.0296 3.64015C10.5675 4.17804 10.9001 4.92115 10.9001 5.74185C10.9001 5.95169 11.0702 6.12178 11.2801 6.12178C11.4899 6.12189 11.6599 5.95157 11.6599 5.74174L11.6599 5.74176ZM9.86906 5.74176C9.86906 5.20573 9.65182 4.72037 9.30047 4.36915C8.94923 4.0179 8.46389 3.80057 7.92786 3.80057C7.71802 3.80057 7.54793 3.97067 7.54793 4.1805C7.54793 4.39034 7.71803 4.56043 7.92786 4.56043C8.25405 4.56043 8.54943 4.69267 8.76314 4.90648C8.97696 5.12029 9.10919 5.41547 9.10919 5.74176C9.10919 5.9516 9.27929 6.1217 9.48913 6.1217C9.69897 6.12181 9.86906 5.95159 9.86906 5.74176Z" fill="white"/>
</svg>
