<svg width="15" height="15" viewBox="0 0 15 15" fill="none" xmlns="http://www.w3.org/2000/svg">
<path d="M13.0768 0H6.42841C6.23697 0 6.06012 0.10212 5.96445 0.267858C5.86879 0.433597 5.86879 0.637839 5.96445 0.803575C6.06012 0.96931 6.23697 1.07143 6.42841 1.07143H13.0768C13.3027 1.07143 13.5194 1.16112 13.6791 1.32087C13.8389 1.48063 13.9286 1.69732 13.9286 1.9232V13.0768C13.9286 13.3027 13.8389 13.5194 13.6791 13.6792C13.5194 13.8389 13.3027 13.9286 13.0768 13.9286H1.92319C1.69731 13.9286 1.48063 13.8389 1.32086 13.6792C1.1611 13.5194 1.07142 13.3027 1.07142 13.0768V1.9232C1.07142 1.69732 1.16111 1.48064 1.32086 1.32087C1.48062 1.16111 1.6973 1.07143 1.92319 1.07143H3.2143C3.40575 1.07143 3.5826 0.969313 3.67826 0.803575C3.77392 0.637836 3.77392 0.433594 3.67826 0.267858C3.5826 0.102123 3.40574 0 3.2143 0H1.92319C1.41319 0 0.923973 0.202568 0.563329 0.563329C0.202562 0.923973 0 1.41319 0 1.92319V13.0768C0 13.5868 0.202568 14.076 0.563329 14.4367C0.923973 14.7974 1.41319 15 1.92319 15H13.0768C13.5868 15 14.076 14.7974 14.4367 14.4367C14.7974 14.076 15 13.5868 15 13.0768V1.92319C15 1.41319 14.7974 0.923973 14.4367 0.563329C14.076 0.202562 13.5868 0 13.0768 0Z" fill="white"/>
<path d="M5.35708 0.535717C5.35708 0.831558 5.1172 1.07143 4.82136 1.07143C4.52552 1.07143 4.28564 0.831558 4.28564 0.535717C4.28564 0.239876 4.52552 0 4.82136 0C5.1172 0 5.35708 0.239876 5.35708 0.535717Z" fill="white"/>
<path d="M12.8571 2.67854C12.8571 2.97438 12.6172 3.21426 12.3214 3.21426C12.0255 3.21426 11.7856 2.97438 11.7856 2.67854C11.7856 2.3827 12.0255 2.14282 12.3214 2.14282C12.6172 2.14282 12.8571 2.3827 12.8571 2.67854Z" fill="white"/>
<path d="M3.21411 7.50009C3.21411 8.6367 3.66564 9.72677 4.46934 10.5306C5.27316 11.3343 6.36324 11.7858 7.49984 11.7858C8.63645 11.7858 9.72653 11.3343 10.5303 10.5306C11.334 9.72677 11.7856 8.6367 11.7856 7.50009C11.7856 6.36348 11.334 5.27341 10.5303 4.46959C9.72653 3.66589 8.63645 3.21436 7.49984 3.21436C6.36324 3.21436 5.27316 3.66589 4.46934 4.46959C3.66564 5.27341 3.21411 6.36348 3.21411 7.50009ZM7.49984 4.28579C8.35234 4.28579 9.1699 4.62442 9.77269 5.22724C10.3755 5.83006 10.7141 6.64759 10.7141 7.50009C10.7141 8.35258 10.3755 9.17015 9.77269 9.77293C9.16987 10.3757 8.35234 10.7144 7.49984 10.7144C6.64735 10.7144 5.82979 10.3758 5.227 9.77293C4.62421 9.17012 4.28554 8.35258 4.28554 7.50009C4.28554 6.64759 4.62418 5.83003 5.227 5.22724C5.82982 4.62445 6.64735 4.28579 7.49984 4.28579Z" fill="white"/>
</svg>
