<svg width="14" height="10" viewBox="0 0 14 10" fill="none" xmlns="http://www.w3.org/2000/svg">
<path d="M12.6672 0.06948C12.5563 0.0264317 12.4371 0 12.3115 0H0.924794C0.798994 0 0.679886 0.0264297 0.569092 0.06948L6.61801 4.26381L12.6672 0.06948Z" fill="#FFFCFC"/>
<path d="M6.86643 5.15733C6.79361 5.2103 6.70589 5.23673 6.61829 5.23673C6.53058 5.23673 6.44287 5.2103 6.36681 5.15733L0.0132725 0.75293C0.00657864 0.807522 0 0.865458 0 0.925011V8.24647C0 8.75776 0.413642 9.1714 0.924932 9.1714H12.3116C12.8229 9.1714 13.2365 8.75776 13.2365 8.24647V0.925011C13.2365 0.867074 13.23 0.807519 13.2216 0.75293L6.86643 5.15733Z" fill="#FFFCFC"/>
</svg>
