<svg width="276" height="69" viewBox="0 0 276 69" fill="none" xmlns="http://www.w3.org/2000/svg">
<path d="M47.5968 0H0V67.3615H47.5968V0Z" fill="#AD2A47"/>
<path d="M8.87402 25.6541V50.9852L38.7229 33.2373V25.6541L15.5698 39.3684V25.6541H8.87402Z" fill="white"/>
<path d="M38.7234 57.7211V50.985L20.1284 44.2085V50.985L38.7234 57.7211Z" fill="white"/>
<path d="M38.7229 60.5847H8.87402V67.3491H38.7229V60.5847Z" fill="black"/>
<path d="M85.029 40.2554H93.0559L84.3029 54.0504L93.0559 67.8454H85.029L78.1315 56.9546H74.3802V67.8454H67.4424V40.2554H74.3802V51.1462H78.1315L85.029 40.2554Z" fill="white"/>
<path d="M100.396 43.7242C101.688 42.3722 103.241 41.2961 104.96 40.5608C106.679 39.8256 108.53 39.4465 110.4 39.4465C112.27 39.4465 114.12 39.8256 115.84 40.5608C117.559 41.2961 119.111 42.3722 120.403 43.7242C121.754 45.0782 122.818 46.6904 123.531 48.4645C124.245 50.2386 124.594 52.1383 124.558 54.0503C124.598 55.9568 124.251 57.8515 123.536 59.6197C122.822 61.3878 121.756 62.9923 120.403 64.336C119.111 65.6881 117.559 66.7642 115.84 67.4994C114.12 68.2347 112.27 68.6137 110.4 68.6137C108.53 68.6137 106.679 68.2347 104.96 67.4994C103.241 66.7642 101.688 65.6881 100.396 64.336C99.0381 62.9943 97.9659 61.391 97.2449 59.6231C96.5238 57.8552 96.1689 55.9593 96.2015 54.0503C96.1727 52.1358 96.5292 50.235 97.2499 48.4611C97.9706 46.6871 99.0406 45.0762 100.396 43.7242ZM105.277 59.8991C105.898 60.6584 106.679 61.2703 107.565 61.6905C108.451 62.1107 109.419 62.3287 110.4 62.3287C111.38 62.3287 112.349 62.1107 113.235 61.6905C114.121 61.2703 114.902 60.6584 115.523 59.8991C116.902 58.2623 117.659 56.1908 117.659 54.0503C117.659 51.9098 116.902 49.8383 115.523 48.2015C114.902 47.4422 114.121 46.8303 113.235 46.4101C112.349 45.9898 111.38 45.7719 110.4 45.7719C109.419 45.7719 108.451 45.9898 107.565 46.4101C106.679 46.8303 105.898 47.4422 105.277 48.2015C103.898 49.8383 103.141 51.9098 103.141 54.0503C103.141 56.1908 103.898 58.2623 105.277 59.8991Z" fill="white"/>
<path d="M129.278 40.2554H140.33C144.726 40.2554 147.913 41.0218 149.93 42.5142C151.947 44.0066 152.915 46.4268 152.915 49.7344C152.915 53.042 151.906 55.3815 149.93 56.8739C147.953 58.3664 144.726 59.1731 140.33 59.1731H136.216V67.8454H129.278V40.2554ZM136.216 53.3243H140.33C142.306 53.3243 143.718 53.042 144.646 52.4773C145.072 52.1537 145.418 51.7359 145.656 51.2566C145.894 50.7772 146.017 50.2494 146.017 49.7142C146.017 49.1791 145.894 48.6512 145.656 48.1719C145.418 47.6925 145.072 47.2747 144.646 46.9512C143.718 46.3865 142.266 46.1041 140.33 46.1041H136.216V53.3243Z" fill="white"/>
<path d="M164.572 57.3176L175.907 40.2554H182.844V67.8454H175.907V50.7831L164.572 67.8454H157.634V40.2554H164.572V57.3176Z" fill="white"/>
<path d="M215.92 46.8705C218.018 48.6453 219.066 51.0655 219.066 54.0504C219.066 57.0353 218.018 59.4554 215.92 61.2302C213.823 63.005 210.757 64.1344 206.804 64.5378V67.8454H199.826V64.5378C195.873 64.1344 192.848 63.0454 190.71 61.2302C188.572 59.4151 187.564 57.0353 187.564 54.0504C187.564 51.0655 188.612 48.6453 190.71 46.8705C192.807 45.0957 195.873 43.9663 199.826 43.5629V40.2554H206.804V43.5629C210.757 43.9663 213.782 45.0554 215.92 46.8705ZM194.502 54.0504C194.502 56.2285 196.276 57.6 199.826 58.1243V49.9361C196.276 50.5411 194.502 51.8722 194.502 54.0504ZM206.804 49.9361V58.1243C208.579 57.8823 209.91 57.3983 210.797 56.7126C211.224 56.4157 211.57 56.0164 211.803 55.5513C212.035 55.0862 212.147 54.5701 212.129 54.0504C212.129 51.8722 210.354 50.5411 206.804 49.9361Z" fill="white"/>
<path d="M244.276 40.2554V46.1041H230.723V51.1462H243.873V56.9546H230.723V61.9966H244.276V67.8454H223.785V40.2554H244.276Z" fill="white"/>
<path d="M257.103 57.3179L268.478 40.2557H275.375V67.8457H268.478V50.7835L257.103 67.8457H250.165V40.2557H257.103V57.3179ZM268.357 35.0927C267.066 36.4238 265.211 37.1095 262.791 37.1095C260.37 37.1095 258.515 36.4238 257.224 35.0927C255.933 33.7616 255.328 31.7851 255.328 29.2439H260.209C260.209 31.5834 261.056 32.7531 262.791 32.7531C264.525 32.7531 265.372 31.5834 265.372 29.2439H270.253C270.253 31.7851 269.648 33.7616 268.357 35.0927Z" fill="white"/>
<path d="M68.1277 28.1549H70.3059C71.516 28.1549 72.4034 28.3566 72.9277 28.76C73.2156 28.9805 73.4438 29.2694 73.5917 29.6004C73.7396 29.9315 73.8026 30.2942 73.7748 30.6558C73.8063 31.0177 73.7451 31.3817 73.5969 31.7134C73.4487 32.0451 73.2184 32.3336 72.9277 32.5516C72.4034 32.9549 71.516 33.1566 70.3059 33.1566H67.3613V24.8877H73.2504V25.5734H68.1277V28.1549ZM68.1277 32.4709H70.3059C71.2336 32.4709 71.9193 32.3499 72.3227 32.0675C72.5432 31.9081 72.7185 31.6943 72.8316 31.4468C72.9448 31.1994 72.9918 30.9268 72.9681 30.6558C72.9928 30.3904 72.9459 30.1232 72.8324 29.882C72.7189 29.6409 72.5429 29.4345 72.3227 29.2843C71.7075 28.9443 71.0069 28.7902 70.3059 28.8406H68.1277V32.4709Z" fill="white"/>
<path d="M79.8257 24.8877V25.5734H78.656V32.4709H79.8257V33.1566H76.6392V32.4709H77.8492V25.5734H76.6392V24.8877H79.8257Z" fill="white"/>
<path d="M87.4086 28.8402C87.9248 28.9415 88.3929 29.211 88.7397 29.6066C89.066 29.9876 89.2386 30.4766 89.2238 30.978C89.2451 31.3272 89.1788 31.6762 89.0309 31.9933C88.883 32.3103 88.6581 32.5853 88.3767 32.7932C87.6385 33.2436 86.7791 33.455 85.9162 33.3982C84.8674 33.3982 84.0607 33.1965 83.496 32.7528C83.2146 32.5449 82.9897 32.2699 82.8418 31.9529C82.6939 31.6359 82.6276 31.2869 82.6489 30.9377H83.4557C83.4372 31.191 83.4874 31.4446 83.601 31.6718C83.7146 31.8989 83.8873 32.0913 84.1011 32.2285C84.637 32.5837 85.2745 32.7537 85.9162 32.7125C86.5705 32.7537 87.2208 32.5841 87.7717 32.2285C87.9769 32.0828 88.1432 31.8889 88.2557 31.6638C88.3683 31.4387 88.4237 31.1893 88.417 30.9377C88.4202 30.681 88.3635 30.427 88.2515 30.196C88.1395 29.9649 87.9752 29.7631 87.7717 29.6066C87.2084 29.284 86.5644 29.13 85.9162 29.1629H84.9078V28.5175H85.9162C86.5201 28.5421 87.1195 28.4027 87.6506 28.1142C87.8443 27.9884 88.0019 27.8144 88.108 27.6094C88.214 27.4043 88.265 27.1751 88.2557 26.9444C88.2611 26.7143 88.2085 26.4866 88.1028 26.2822C87.997 26.0777 87.8415 25.9032 87.6506 25.7747C87.127 25.4669 86.5219 25.3261 85.9162 25.3713C85.3109 25.3312 84.7072 25.4715 84.1817 25.7747C83.9881 25.9004 83.8305 26.0744 83.7244 26.2795C83.6183 26.4846 83.5674 26.7137 83.5767 26.9444H82.77C82.758 26.6137 82.8293 26.2853 82.9773 25.9893C83.1253 25.6933 83.3453 25.4392 83.617 25.2503C84.2963 24.8019 85.1042 24.5893 85.9162 24.6452C86.7406 24.5922 87.5604 24.8042 88.2557 25.2503C88.5191 25.4256 88.7322 25.6667 88.8737 25.9497C89.0152 26.2327 89.0802 26.5478 89.0624 26.8637C89.0624 27.8721 88.4977 28.5175 87.4086 28.8402Z" fill="white"/>
<path d="M98.0575 28.6793V24.8877H98.8643V33.1566H98.0575V29.365H93.1365V33.1566H92.3701V24.8877H93.1365V28.6793H98.0575Z" fill="white"/>
<path d="M107.98 24.8877V25.5734H103.14V28.6793H107.859V29.365H103.14V32.4709H107.98V33.1566H102.333V24.8877H107.98Z" fill="white"/>
<path d="M114.878 32.6724C115.25 32.6718 115.619 32.6035 115.967 32.4707C116.279 32.3483 116.566 32.1706 116.814 31.9463C117.163 31.6243 117.45 31.2416 117.661 30.8169L117.742 30.6152H118.589L118.508 30.7362C118.476 30.8784 118.422 31.0146 118.347 31.1396C118.14 31.5686 117.867 31.9632 117.54 32.3093L116.854 32.874C116.595 33.0427 116.308 33.1654 116.007 33.2371C115.642 33.3528 115.261 33.4073 114.878 33.3984C114.339 33.4029 113.806 33.2939 113.313 33.0784C112.819 32.8629 112.377 32.5459 112.014 32.148C111.222 31.3093 110.788 30.1953 110.804 29.0421C110.78 27.8873 111.215 26.7701 112.014 25.9362C112.375 25.5329 112.816 25.2097 113.309 24.9874C113.802 24.7651 114.337 24.6486 114.878 24.6454C115.578 24.6346 116.266 24.8311 116.854 25.2102L117.54 25.7749L117.742 26.0169L117.903 26.2186L118.064 26.4606L118.185 26.6623L118.306 26.8639L118.387 27.0253C118.427 27.0656 118.427 27.106 118.468 27.1866L118.549 27.3076V27.469H117.701C117.661 27.348 117.621 27.3076 117.621 27.2673C117.531 27.0821 117.423 26.9064 117.298 26.7429C117.146 26.5105 116.97 26.2942 116.774 26.0975C116.522 25.9097 116.251 25.7476 115.967 25.6135C115.61 25.465 115.224 25.3962 114.838 25.4118C114.401 25.405 113.967 25.4956 113.57 25.677C113.172 25.8584 112.82 26.1261 112.538 26.4606C111.912 27.1745 111.566 28.0921 111.566 29.0421C111.566 29.9921 111.912 30.9097 112.538 31.6236C112.83 31.9569 113.189 32.2233 113.593 32.4043C113.997 32.5853 114.435 32.6768 114.878 32.6724Z" fill="white"/>
<path d="M124.437 30.5749H121.291V29.8892H124.437V30.5749Z" fill="white"/>
<path d="M134.078 24.8877V32.4709H134.965V35.0524H134.158V33.1566H127.583V24.8877H128.39V32.4709H133.311V24.8877H134.078Z" fill="white"/>
<path d="M143.678 24.8877V25.5734H138.838V28.6793H143.557V29.365H138.838V32.4709H143.678V33.1566H138.031V24.8877H143.678Z" fill="white"/>
<path d="M152.673 28.6793V24.8877H153.479V33.1566H152.673V29.365H147.792V33.1566H146.985V24.8877H147.792V28.6793H152.673Z" fill="white"/>
<path d="M160.296 33.1566H159.49V25.5734H156.505V24.8877H163.241V25.5734H160.296V33.1566Z" fill="white"/>
<path d="M166.266 24.8877H169.251C170.461 24.8877 171.348 25.0894 171.873 25.4927C172.164 25.7196 172.394 26.0154 172.542 26.3535C172.69 26.6915 172.751 27.0612 172.72 27.4289C172.748 27.7904 172.685 28.1532 172.537 28.4842C172.389 28.8153 172.161 29.1042 171.873 29.3247C171.348 29.728 170.461 29.9297 169.251 29.9297H167.073V33.1566H166.266V24.8877ZM167.073 29.244H169.251C169.952 29.2945 170.653 29.1403 171.268 28.8003C171.485 28.6473 171.659 28.4404 171.772 28.1999C171.885 27.9595 171.934 27.6938 171.913 27.4289C171.937 27.1578 171.89 26.8853 171.777 26.6378C171.664 26.3904 171.488 26.1765 171.268 26.0171C170.653 25.6771 169.952 25.523 169.251 25.5734H167.073V29.244Z" fill="white"/>
</svg>
