<svg width="165" height="41" viewBox="0 0 165 41" fill="none" xmlns="http://www.w3.org/2000/svg">
<path d="M28.4412 0H0V40.2516H28.4412V0Z" fill="#AD2A47"/>
<path d="M5.30249 15.3293V30.4659L23.1385 19.8607V15.3293L9.30355 23.5243V15.3293H5.30249Z" fill="white"/>
<path d="M23.1387 34.4909V30.4658L12.0273 26.4165V30.4658L23.1387 34.4909Z" fill="white"/>
<path d="M23.1385 36.2024H5.30249V40.2444H23.1385V36.2024Z" fill="black"/>
<path d="M50.8086 24.0544H55.6051L50.3748 32.2976L55.6051 40.5407H50.8086L46.687 34.033H44.4455V40.5407H40.2998V24.0544H44.4455V30.5622H46.687L50.8086 24.0544Z" fill="white"/>
<path d="M59.9913 26.1274C60.7632 25.3195 61.6909 24.6765 62.7183 24.2371C63.7456 23.7978 64.8514 23.5713 65.9688 23.5713C67.0862 23.5713 68.192 23.7978 69.2193 24.2371C70.2467 24.6765 71.1744 25.3195 71.9463 26.1274C72.7532 26.9365 73.3889 27.8998 73.8155 28.9599C74.242 30.02 74.4506 31.1552 74.4289 32.2977C74.4529 33.4369 74.2453 34.5691 73.8185 35.6256C73.3917 36.6822 72.7548 37.641 71.9463 38.4439C71.1744 39.2518 70.2467 39.8948 69.2193 40.3342C68.192 40.7735 67.0862 41 65.9688 41C64.8514 41 63.7456 40.7735 62.7183 40.3342C61.6909 39.8948 60.7632 39.2518 59.9913 38.4439C59.1796 37.6422 58.5389 36.6841 58.1081 35.6277C57.6772 34.5713 57.4651 33.4384 57.4846 32.2977C57.4674 31.1537 57.6804 30.0179 58.1111 28.9579C58.5417 27.8979 59.1811 26.9353 59.9913 26.1274ZM62.9077 35.7926C63.2785 36.2463 63.7454 36.612 64.2748 36.8631C64.8043 37.1142 65.3829 37.2445 65.9688 37.2445C66.5547 37.2445 67.1333 37.1142 67.6628 36.8631C68.1922 36.612 68.6591 36.2463 69.0298 35.7926C69.8541 34.8146 70.3062 33.5767 70.3062 32.2977C70.3062 31.0187 69.8541 29.7808 69.0298 28.8028C68.6591 28.3491 68.1922 27.9834 67.6628 27.7323C67.1333 27.4812 66.5547 27.351 65.9688 27.351C65.3829 27.351 64.8043 27.4812 64.2748 27.7323C63.7454 27.9834 63.2785 28.3491 62.9077 28.8028C62.0835 29.7808 61.6314 31.0187 61.6314 32.2977C61.6314 33.5767 62.0835 34.8146 62.9077 35.7926Z" fill="white"/>
<path d="M77.2495 24.0544H83.8537C86.4809 24.0544 88.385 24.5124 89.5901 25.4042C90.7953 26.296 91.3737 27.7422 91.3737 29.7186C91.3737 31.695 90.7712 33.093 89.5901 33.9848C88.4091 34.8766 86.4809 35.3586 83.8537 35.3586H81.3952V40.5407H77.2495V24.0544ZM81.3952 31.8637H83.8537C85.0347 31.8637 85.8783 31.695 86.4327 31.3576C86.6874 31.1642 86.8939 30.9146 87.0361 30.6282C87.1782 30.3417 87.2522 30.0263 87.2522 29.7065C87.2522 29.3868 87.1782 29.0713 87.0361 28.7849C86.8939 28.4985 86.6874 28.2488 86.4327 28.0555C85.8783 27.7181 85.0106 27.5493 83.8537 27.5493H81.3952V31.8637Z" fill="white"/>
<path d="M98.3393 34.2499L105.112 24.0544H109.258V40.5407H105.112V30.3453L98.3393 40.5407H94.1936V24.0544H98.3393V34.2499Z" fill="white"/>
<path d="M129.022 28.0073C130.275 29.0678 130.902 30.514 130.902 32.2976C130.902 34.0812 130.275 35.5274 129.022 36.5879C127.769 37.6484 125.937 38.3233 123.575 38.5643V40.5407H119.405V38.5643C117.043 38.3233 115.235 37.6725 113.958 36.5879C112.68 35.5032 112.078 34.0812 112.078 32.2976C112.078 30.514 112.705 29.0678 113.958 28.0073C115.211 26.9468 117.043 26.2719 119.405 26.0309V24.0544H123.575V26.0309C125.937 26.2719 127.745 26.9227 129.022 28.0073ZM116.224 32.2976C116.224 33.5991 117.284 34.4186 119.405 34.732V29.8391C117.284 30.2006 116.224 30.996 116.224 32.2976ZM123.575 29.8391V34.732C124.635 34.5873 125.431 34.2981 125.961 33.8884C126.216 33.711 126.423 33.4724 126.562 33.1945C126.701 32.9165 126.768 32.6081 126.756 32.2976C126.756 30.996 125.696 30.2006 123.575 29.8391Z" fill="white"/>
<path d="M145.966 24.0544V27.5493H137.868V30.5622H145.725V34.033H137.868V37.0458H145.966V40.5407H133.722V24.0544H145.966Z" fill="white"/>
<path d="M153.631 34.2499L160.428 24.0544H164.549V40.5407H160.428V30.3452L153.631 40.5407H149.485V24.0544H153.631V34.2499ZM160.355 20.9693C159.584 21.7647 158.475 22.1744 157.029 22.1744C155.583 22.1744 154.474 21.7647 153.703 20.9693C152.932 20.1739 152.57 18.9928 152.57 17.4744H155.487C155.487 18.8723 155.993 19.5713 157.029 19.5713C158.066 19.5713 158.572 18.8723 158.572 17.4744H161.488C161.488 18.9928 161.127 20.1739 160.355 20.9693Z" fill="white"/>
<path d="M40.7097 16.8237H42.0112C42.7343 16.8237 43.2646 16.9442 43.5779 17.1852C43.7499 17.317 43.8863 17.4896 43.9746 17.6874C44.063 17.8852 44.1006 18.102 44.084 18.318C44.1029 18.5343 44.0663 18.7518 43.9777 18.95C43.8892 19.1482 43.7516 19.3206 43.5779 19.4509C43.2646 19.6919 42.7343 19.8124 42.0112 19.8124H40.2517V14.8713H43.7707V15.2811H40.7097V16.8237ZM40.7097 19.4027H42.0112C42.5656 19.4027 42.9753 19.3303 43.2163 19.1616C43.3481 19.0664 43.4529 18.9386 43.5205 18.7907C43.5881 18.6428 43.6161 18.48 43.602 18.318C43.6167 18.1594 43.5888 17.9998 43.5209 17.8557C43.4531 17.7116 43.348 17.5883 43.2163 17.4985C42.8488 17.2954 42.4301 17.2033 42.0112 17.2334H40.7097V19.4027Z" fill="white"/>
<path d="M47.6995 14.8713V15.2811H47.0005V19.4027H47.6995V19.8124H45.7954V19.4027H46.5185V15.2811H45.7954V14.8713H47.6995Z" fill="white"/>
<path d="M52.2305 17.2334C52.539 17.2939 52.8187 17.455 53.0259 17.6913C53.2209 17.919 53.324 18.2112 53.3151 18.5108C53.3279 18.7195 53.2883 18.928 53.1999 19.1174C53.1115 19.3069 52.9771 19.4712 52.809 19.5954C52.3679 19.8646 51.8543 19.9909 51.3387 19.957C50.712 19.957 50.23 19.8365 49.8925 19.5713C49.7244 19.4471 49.59 19.2828 49.5016 19.0933C49.4132 18.9039 49.3736 18.6954 49.3864 18.4867H49.8684C49.8574 18.6381 49.8874 18.7896 49.9553 18.9253C50.0231 19.0611 50.1264 19.176 50.2541 19.258C50.5743 19.4702 50.9553 19.5718 51.3387 19.5472C51.7297 19.5719 52.1183 19.4705 52.4474 19.258C52.5701 19.171 52.6694 19.0551 52.7367 18.9206C52.804 18.7861 52.8371 18.637 52.8331 18.4867C52.8349 18.3333 52.8011 18.1815 52.7341 18.0435C52.6672 17.9054 52.569 17.7849 52.4474 17.6913C52.1109 17.4986 51.726 17.4065 51.3387 17.4262H50.7361V17.0405H51.3387C51.6996 17.0552 52.0577 16.9719 52.3751 16.7995C52.4908 16.7244 52.585 16.6204 52.6484 16.4979C52.7118 16.3753 52.7422 16.2384 52.7367 16.1005C52.7399 15.963 52.7085 15.827 52.6453 15.7048C52.5821 15.5827 52.4892 15.4784 52.3751 15.4016C52.0622 15.2176 51.7007 15.1335 51.3387 15.1605C50.977 15.1365 50.6163 15.2204 50.3023 15.4016C50.1866 15.4767 50.0924 15.5807 50.029 15.7032C49.9656 15.8257 49.9352 15.9627 49.9407 16.1005H49.4587C49.4516 15.9029 49.4942 15.7067 49.5826 15.5298C49.671 15.3529 49.8025 15.2011 49.9648 15.0882C50.3708 14.8203 50.8535 14.6933 51.3387 14.7267C51.8313 14.695 52.3212 14.8217 52.7367 15.0882C52.8941 15.193 53.0214 15.337 53.1059 15.5062C53.1905 15.6753 53.2294 15.8636 53.2187 16.0523C53.2187 16.6549 52.8813 17.0405 52.2305 17.2334Z" fill="white"/>
<path d="M58.594 17.137V14.8713H59.0761V19.8124H58.594V17.5467H55.6535V19.8124H55.1956V14.8713H55.6535V17.137H58.594Z" fill="white"/>
<path d="M64.5231 14.8713V15.2811H61.6307V17.137H64.4508V17.5467H61.6307V19.4027H64.5231V19.8124H61.1487V14.8713H64.5231Z" fill="white"/>
<path d="M68.6449 19.5233C68.8674 19.5229 69.0879 19.4821 69.2957 19.4027C69.4819 19.3296 69.6533 19.2235 69.8018 19.0894C70.0101 18.897 70.1816 18.6683 70.308 18.4145L70.3562 18.294H70.8624L70.8142 18.3663C70.795 18.4513 70.7625 18.5326 70.7177 18.6074C70.5939 18.8637 70.4313 19.0995 70.2357 19.3063L69.826 19.6438C69.6709 19.7445 69.4997 19.8179 69.3198 19.8607C69.1017 19.9299 68.8736 19.9624 68.6449 19.9571C68.3232 19.9598 68.0045 19.8946 67.7096 19.7659C67.4148 19.6371 67.1504 19.4477 66.9336 19.2099C66.4605 18.7088 66.2012 18.0431 66.2105 17.354C66.196 16.664 66.4561 15.9964 66.9336 15.4981C67.1492 15.2571 67.4128 15.064 67.7075 14.9311C68.0023 14.7983 68.3216 14.7287 68.6449 14.7268C69.0633 14.7203 69.4742 14.8378 69.826 15.0643L70.2357 15.4017L70.3562 15.5463L70.4526 15.6668L70.549 15.8114L70.6213 15.932L70.6936 16.0525L70.7419 16.1489C70.766 16.173 70.766 16.1971 70.7901 16.2453L70.8383 16.3176V16.414H70.3321C70.308 16.3417 70.2839 16.3176 70.2839 16.2935C70.2303 16.1828 70.1657 16.0779 70.0911 15.9802C70.0001 15.8413 69.8951 15.712 69.7777 15.5945C69.6271 15.4823 69.4656 15.3854 69.2957 15.3053C69.0822 15.2165 68.8519 15.1754 68.6208 15.1848C68.3597 15.1807 68.1009 15.2348 67.8632 15.3432C67.6256 15.4516 67.4151 15.6116 67.247 15.8114C66.8724 16.238 66.6658 16.7863 66.6658 17.354C66.6658 17.9217 66.8724 18.47 67.247 18.8966C67.4209 19.0958 67.636 19.2549 67.8773 19.3631C68.1186 19.4713 68.3805 19.5259 68.6449 19.5233Z" fill="white"/>
<path d="M74.3568 18.2699H72.4768V17.8601H74.3568V18.2699Z" fill="white"/>
<path d="M80.1176 14.8713V19.4027H80.6479V20.9452H80.1658V19.8124H76.2371V14.8713H76.7191V19.4027H79.6597V14.8713H80.1176Z" fill="white"/>
<path d="M85.8541 14.8713V15.2811H82.9618V17.137H85.7818V17.5467H82.9618V19.4027H85.8541V19.8124H82.4797V14.8713H85.8541Z" fill="white"/>
<path d="M91.2288 17.137V14.8713H91.7109V19.8124H91.2288V17.5467H88.3124V19.8124H87.8303V14.8713H88.3124V17.137H91.2288Z" fill="white"/>
<path d="M95.784 19.8124H95.3019V15.2811H93.5183V14.8713H97.5435V15.2811H95.784V19.8124Z" fill="white"/>
<path d="M99.3518 14.8713H101.135C101.858 14.8713 102.389 14.9919 102.702 15.2329C102.876 15.3684 103.013 15.5452 103.102 15.7472C103.19 15.9492 103.227 16.1701 103.208 16.3898C103.225 16.6058 103.187 16.8226 103.099 17.0204C103.01 17.2182 102.874 17.3909 102.702 17.5226C102.389 17.7637 101.858 17.8842 101.135 17.8842H99.8339V19.8124H99.3518V14.8713ZM99.8339 17.4744H101.135C101.554 17.5046 101.973 17.4125 102.341 17.2093C102.47 17.1179 102.574 16.9942 102.642 16.8506C102.709 16.7069 102.738 16.5481 102.726 16.3898C102.74 16.2279 102.712 16.065 102.645 15.9171C102.577 15.7693 102.472 15.6415 102.341 15.5462C101.973 15.343 101.554 15.2509 101.135 15.2811H99.8339V17.4744Z" fill="white"/>
</svg>
