<svg width="191" height="17" viewBox="0 0 191 17" fill="none" xmlns="http://www.w3.org/2000/svg">
<path d="M2 2C11.3533 2 11.3533 15 20.7066 15C30.0599 15 30.0599 2 39.4132 2C48.7665 2 48.7665 15 58.0978 15C67.4514 15 67.4514 2 76.7825 2C86.136 2 86.136 15 95.4671 15C104.821 15 104.821 2 114.173 2C123.527 2 123.527 15 132.88 15C142.233 15 142.233 2 151.587 2C160.94 2 160.94 15 170.294 15C179.646 15 179.647 2 189 2" stroke="#AD2A47" stroke-width="3" stroke-miterlimit="10" stroke-linecap="round"/>
</svg>
