<svg width="19" height="19" viewBox="0 0 19 19" fill="none" xmlns="http://www.w3.org/2000/svg">
<path fill-rule="evenodd" clip-rule="evenodd" d="M5.46765 6.45431C6.69532 8.90033 10.0996 12.3047 12.5456 13.5323L14.2505 11.9049C14.7566 11.4219 15.5575 11.4313 16.0521 11.9259L18.6224 14.4961C18.8862 14.7599 19.0137 15.0861 18.9988 15.4588C18.984 15.8315 18.8309 16.1467 18.5472 16.3885L15.4853 18.9996C9.87846 19.0821 -0.0849744 9.29273 0.000546986 3.51486L2.61152 0.452808C2.85361 0.168927 3.16848 0.0159582 3.54121 0.00115497C3.91394 -0.0136483 4.24007 0.113959 4.50388 0.377618L7.07413 2.94786C7.56877 3.44251 7.57809 4.24338 7.0951 4.74945L5.46765 6.45431ZM10.7592 1.30922C12.5442 1.30922 14.1603 2.03262 15.3302 3.20246C16.5001 4.3723 17.2235 5.98827 17.2235 7.77345C17.2235 8.05823 17.4543 8.28907 17.7391 8.28907C18.0239 8.28907 18.2547 8.05822 18.2547 7.77345C18.2547 5.70371 17.4158 3.82987 16.0595 2.47342C14.7031 1.11708 12.8291 0.277858 10.7594 0.277858C10.4746 0.277858 10.2438 0.508708 10.2438 0.793479C10.2438 1.07826 10.4745 1.30925 10.7593 1.30925L10.7592 1.30922ZM15.8242 7.77318C15.8242 6.37458 15.2573 5.10828 14.3408 4.19175C13.4243 3.27525 12.1581 2.70835 10.7594 2.70835C10.4746 2.70835 10.2437 2.9392 10.2437 3.22397C10.2437 3.50875 10.4746 3.7396 10.7594 3.7396C11.8732 3.7396 12.8817 4.1911 13.6117 4.92098C14.3417 5.65098 14.7931 6.65948 14.7931 7.77329C14.7931 8.05807 15.0239 8.28891 15.3087 8.28891C15.5935 8.28906 15.8241 8.05791 15.8241 7.77314L15.8242 7.77318ZM13.3937 7.77318C13.3937 7.04571 13.0989 6.387 12.6221 5.91034C12.1454 5.43365 11.4867 5.1387 10.7592 5.1387C10.4745 5.1387 10.2436 5.36955 10.2436 5.65432C10.2436 5.9391 10.4745 6.16994 10.7592 6.16994C11.2019 6.16994 11.6028 6.34941 11.8928 6.63958C12.183 6.92975 12.3625 7.33034 12.3625 7.77318C12.3625 8.05796 12.5933 8.2888 12.8781 8.2888C13.1629 8.28895 13.3937 8.05795 13.3937 7.77318Z" fill="white"/>
</svg>
