<svg width="22" height="22" viewBox="0 0 22 22" fill="none" xmlns="http://www.w3.org/2000/svg">
<path fill-rule="evenodd" clip-rule="evenodd" d="M6.84906 7.43285C8.19137 10.1073 11.9136 13.8295 14.5879 15.1717L16.4521 13.3924C17.0054 12.8643 17.881 12.8746 18.4219 13.4153L21.2322 16.2256C21.5206 16.514 21.66 16.8706 21.6438 17.2782C21.6276 17.6857 21.4602 18.0303 21.1499 18.2947L17.8021 21.1496C11.6717 21.2399 0.77794 10.5363 0.871448 4.21892L3.72623 0.870945C3.99092 0.560555 4.3352 0.393303 4.74273 0.377117C5.15026 0.360932 5.50685 0.500455 5.7953 0.788734L8.60555 3.59898C9.14638 4.13982 9.15657 5.01547 8.62848 5.5688L6.84906 7.43285ZM12.6348 1.80732C14.5864 1.80732 16.3534 2.59828 17.6326 3.87736C18.9117 5.15643 19.7026 6.9233 19.7026 8.87517C19.7026 9.18655 19.955 9.43894 20.2664 9.43894C20.5778 9.43894 20.8302 9.18654 20.8302 8.87517C20.8302 6.61217 19.9129 4.56336 18.4299 3.08024C16.9469 1.59725 14.8979 0.679659 12.635 0.679659C12.3236 0.679659 12.0712 0.932065 12.0712 1.24343C12.0712 1.5548 12.3235 1.80736 12.6348 1.80736L12.6348 1.80732ZM18.1727 8.87488C18.1727 7.34568 17.5529 5.96114 16.5508 4.95902C15.5487 3.95694 14.1643 3.33711 12.6349 3.33711C12.3235 3.33711 12.0711 3.58952 12.0711 3.90088C12.0711 4.21224 12.3235 4.46465 12.6349 4.46465C13.8527 4.46465 14.9554 4.95831 15.7536 5.75635C16.5517 6.55452 17.0453 7.65719 17.0453 8.87501C17.0453 9.18638 17.2977 9.43877 17.609 9.43877C17.9204 9.43894 18.1726 9.1862 18.1726 8.87484L18.1727 8.87488ZM15.5153 8.87488C15.5153 8.07948 15.1929 7.35927 14.6716 6.8381C14.1503 6.31689 13.4302 5.99439 12.6348 5.99439C12.3234 5.99439 12.071 6.2468 12.071 6.55816C12.071 6.86954 12.3234 7.12193 12.6348 7.12193C13.1188 7.12193 13.5571 7.31816 13.8742 7.63543C14.1915 7.9527 14.3877 8.3907 14.3877 8.87488C14.3877 9.18625 14.6401 9.43865 14.9515 9.43865C15.2629 9.43881 15.5153 9.18624 15.5153 8.87488Z" fill="white"/>
</svg>
