<svg width="28" height="28" viewBox="0 0 28 28" fill="none" xmlns="http://www.w3.org/2000/svg">
<path d="M7.30004 6.81004C7.51004 6.60004 8.22004 6.05004 8.22004 6.05004C8.34198 5.95022 8.48268 5.87583 8.63383 5.83126C8.78499 5.7867 8.94354 5.77286 9.10013 5.79057C9.25672 5.80828 9.40817 5.85718 9.54556 5.93437C9.68295 6.01157 9.80348 6.1155 9.90004 6.24004L11.52 8.30004C11.7015 8.53548 11.7931 8.82788 11.7785 9.12478C11.7638 9.42167 11.6438 9.70363 11.44 9.92004L10.67 10.73C10.5622 10.8378 10.4878 10.9744 10.4559 11.1234C10.4239 11.2725 10.4358 11.4276 10.49 11.57C10.8224 12.4611 11.3137 13.2844 11.94 14C12.7157 14.7318 13.5672 15.3788 14.48 15.93C14.693 16.0522 14.9399 16.1017 15.1835 16.071C15.4271 16.0403 15.654 15.9312 15.83 15.76L16.55 15.07C16.7315 14.873 16.9775 14.7475 17.2435 14.7163C17.5096 14.6851 17.778 14.7503 18 14.9L20.13 16.32C20.2773 16.419 20.4029 16.5468 20.4993 16.6957C20.5957 16.8447 20.6608 17.0116 20.6907 17.1865C20.7207 17.3613 20.7148 17.5404 20.6734 17.713C20.632 17.8855 20.556 18.0478 20.45 18.19L20.07 18.71C19.6957 19.2111 19.1585 19.5661 18.5507 19.714C17.943 19.8618 17.3027 19.7932 16.74 19.52C14.6197 18.5804 12.6778 17.2813 11 15.68C9.68204 14.1704 8.52885 12.5244 7.56004 10.77L6.76004 9.05004C6.62407 8.75498 6.57446 8.42744 6.61693 8.10535C6.6594 7.78325 6.79223 7.47977 7.00004 7.23004C7.08819 7.08195 7.18854 6.94146 7.30004 6.81004ZM19.3 12.28C19.3 12.14 19.3 12.01 19.3 11.87C19.3001 10.5526 18.7802 9.28833 17.8533 8.35207C16.9264 7.41581 15.6674 6.88322 14.35 6.87004H14.13C14.062 6.8751 13.9983 6.90576 13.9519 6.95586C13.9055 7.00596 13.8799 7.07177 13.88 7.14004C13.8813 7.17509 13.8896 7.20952 13.9045 7.24126C13.9194 7.27301 13.9406 7.30141 13.9667 7.32477C13.9929 7.34812 14.0235 7.36595 14.0567 7.37716C14.0899 7.38838 14.1251 7.39276 14.16 7.39004H14.35C15.5241 7.39268 16.6494 7.86026 17.4796 8.69048C18.3098 9.52069 18.7774 10.6459 18.78 11.82C18.78 11.94 18.78 12.07 18.78 12.19C18.7773 12.2242 18.7814 12.2586 18.792 12.2912C18.8026 12.3238 18.8195 12.3539 18.8418 12.38C18.8641 12.406 18.8913 12.4273 18.9219 12.4428C18.9525 12.4583 18.9859 12.4675 19.02 12.47C19.0784 12.4722 19.1358 12.4546 19.183 12.4201C19.2302 12.3857 19.2644 12.3363 19.28 12.28H19.3ZM17.41 11.69C17.4197 11.5769 17.4197 11.4632 17.41 11.35C17.4074 10.6454 17.1263 9.97032 16.628 9.47205C16.1298 8.97377 15.4547 8.69268 14.75 8.69004H14.58C14.5111 8.69991 14.4484 8.73508 14.404 8.78869C14.3597 8.84231 14.3369 8.91052 14.34 8.98004C14.3438 9.01427 14.3542 9.04743 14.3709 9.07758C14.3875 9.10773 14.41 9.13427 14.437 9.15567C14.4639 9.17707 14.4949 9.19289 14.528 9.20223C14.5612 9.21156 14.5959 9.21422 14.63 9.21004H14.75C15.0306 9.21004 15.3084 9.26546 15.5675 9.37313C15.8265 9.4808 16.0618 9.63859 16.2597 9.83744C16.4576 10.0363 16.6143 10.2723 16.7208 10.5319C16.8272 10.7914 16.8814 11.0695 16.88 11.35C16.885 11.44 16.885 11.5301 16.88 11.62C16.8744 11.6542 16.8756 11.6892 16.8836 11.7229C16.8917 11.7567 16.9064 11.7884 16.9269 11.8164C16.9474 11.8443 16.9732 11.8679 17.003 11.8857C17.0327 11.9035 17.0657 11.9152 17.1 11.92C17.1342 11.9242 17.1689 11.9216 17.202 11.9122C17.2352 11.9029 17.2661 11.8871 17.2931 11.8657C17.3201 11.8443 17.3426 11.8177 17.3592 11.7876C17.3758 11.7574 17.3863 11.7243 17.39 11.69H17.41ZM21 12.84C21 12.59 21 12.33 21 12.08C20.9924 10.2185 20.255 8.43412 18.9461 7.11031C17.6373 5.7865 15.8614 5.02883 14 5.00004H13.6C13.5663 5.00128 13.5332 5.00934 13.5026 5.02373C13.4721 5.03813 13.4448 5.05855 13.4224 5.08378C13.3999 5.10901 13.3829 5.13852 13.3721 5.17053C13.3614 5.20255 13.3573 5.2364 13.36 5.27004C13.3651 5.33813 13.3958 5.40177 13.4459 5.44816C13.496 5.49454 13.5618 5.52023 13.63 5.52004H14C15.7434 5.52004 17.4156 6.21192 18.6493 7.44374C19.883 8.67557 20.5774 10.3467 20.58 12.09C20.58 12.32 20.58 12.56 20.58 12.8C20.5759 12.8337 20.5786 12.8678 20.5881 12.9004C20.5975 12.9329 20.6135 12.9632 20.635 12.9894C20.6565 13.0156 20.6831 13.0371 20.7132 13.0527C20.7433 13.0683 20.7762 13.0776 20.81 13.08C20.8623 13.064 20.9084 13.0324 20.9423 12.9896C20.9763 12.9467 20.9964 12.8946 21 12.84ZM17.36 11.69C17.3697 11.5769 17.3697 11.4632 17.36 11.35C17.3574 10.6454 17.0763 9.97032 16.578 9.47205C16.0798 8.97377 15.4047 8.69268 14.7 8.69004H14.53C14.4612 8.69991 14.3984 8.73508 14.354 8.78869C14.3097 8.84231 14.2869 8.91052 14.29 8.98004C14.2938 9.01427 14.3042 9.04743 14.3209 9.07758C14.3375 9.10773 14.36 9.13427 14.387 9.15567C14.4139 9.17707 14.4449 9.19289 14.478 9.20223C14.5112 9.21156 14.5459 9.21422 14.58 9.21004H14.7C14.9806 9.21004 15.2584 9.26546 15.5175 9.37313C15.7765 9.4808 16.0118 9.63859 16.2097 9.83744C16.4076 10.0363 16.5643 10.2723 16.6708 10.5319C16.7772 10.7914 16.8314 11.0695 16.83 11.35C16.835 11.44 16.835 11.5301 16.83 11.62C16.8244 11.6542 16.8256 11.6892 16.8336 11.7229C16.8417 11.7567 16.8564 11.7884 16.8769 11.8164C16.8974 11.8443 16.9232 11.8679 16.953 11.8857C16.9827 11.9035 17.0157 11.9152 17.05 11.92C17.0877 11.9323 17.1276 11.9358 17.1669 11.9303C17.2061 11.9248 17.2435 11.9104 17.2763 11.8882C17.3091 11.866 17.3364 11.8366 17.3561 11.8023C17.3758 11.7679 17.3874 11.7296 17.39 11.69H17.36ZM27.19 9.83004L27.09 15.68C27.09 20.98 22.27 24.54 16.97 24.54H11.81L9.15004 27.6C8.99521 27.7701 8.79296 27.8898 8.56942 27.9437C8.34588 27.9976 8.1113 27.9832 7.89599 27.9025C7.68068 27.8218 7.49452 27.6783 7.36155 27.4907C7.22857 27.3031 7.1549 27.0799 7.15004 26.85V23.85C5.30196 23.1724 3.70378 21.9485 2.56779 20.341C1.4318 18.7334 0.811762 16.8183 0.790039 14.85V10C0.790039 4.45004 4.00004 0.400042 10.73 0.0600418C12.14 -0.00995822 16.39 0.0600418 16.39 0.0600418C23.41 4.17773e-05 27.22 4.05004 27.22 9.83004H27.19ZM25.25 10.27C25.19 4.88004 22 2.00004 16 2.00004C16 2.00004 12.4 2.00004 11.2 2.00004C5.46004 2.28004 2.83004 5.74004 2.83004 10.34V14.43C2.76829 16.079 3.23719 17.7042 4.16781 19.0668C5.09843 20.4295 6.44166 21.4576 8.00004 22V26.87C7.99779 26.9163 8.01019 26.962 8.03546 27.0008C8.06074 27.0396 8.0976 27.0694 8.1408 27.0861C8.18401 27.1027 8.23136 27.1052 8.2761 27.0934C8.32085 27.0815 8.36072 27.0559 8.39004 27.02L10.57 24.5L12.37 22.42H16.58C21.45 22.42 25.21 19.42 25.21 15.07L25.25 10.27Z" fill="white"/>
</svg>
