<svg width="66" height="66" viewBox="0 0 66 66" fill="none" xmlns="http://www.w3.org/2000/svg">
<path d="M60.7257 51.5747V51.4738L60.6583 51.5495C60.2196 51.4058 59.7376 51.5424 59.4391 51.8943L52.2931 59.5698H52.2937C51.9641 59.8906 51.8615 60.379 52.0327 60.8054C52.2345 61.2211 52.6649 61.4756 53.1258 61.4528H59.9944C60.7603 61.4528 61.3813 60.8318 61.3813 60.0659V52.6595C61.4012 52.1986 61.1426 51.7711 60.7257 51.5747L60.7257 51.5747ZM59.4813 54.6346V59.5862L54.8663 59.5868L59.4813 54.6346Z" fill="white"/>
<path d="M65.1484 40.9493C64.5561 40.7511 63.9034 40.9587 63.534 41.4618L58.4896 46.8591V12.8793L65.4591 5.9691L59.5324 0L50.4618 9.17207H12.6899C12.6096 6.96079 11.3834 4.95113 9.45345 3.86801C7.5241 2.78492 5.16976 2.78492 3.24041 3.86801C1.31061 4.9511 0.0844229 6.96079 0.00395823 9.17207C-0.00131941 9.20256 -0.00131941 9.23365 0.00395823 9.26414V56.947H19.6427L16.3219 60.3094L21.904 65.8743L29.2264 58.5436V58.5442C29.641 58.1185 29.8633 57.5409 29.8398 56.9468H49.0913L43.1222 63.361H43.1228C42.6314 63.7709 42.4672 64.4547 42.7193 65.0428C42.9832 65.6052 43.572 65.9418 44.1906 65.8831H63.8114C64.3972 65.8814 64.9572 65.6439 65.3665 65.2252C65.7758 64.8065 65.9998 64.2412 65.9887 63.6554V42.4283C66.0678 41.8032 65.7254 41.201 65.1484 40.9488L65.1484 40.9493ZM1.92956 54.9129C2.15298 53.495 3.04198 52.2705 4.32038 51.6185C5.59875 50.967 7.11232 50.967 8.3906 51.6185C9.66955 52.2706 10.5585 53.495 10.782 54.9129H1.92956ZM10.8325 51.1048C9.64088 49.9255 8.03241 49.264 6.35586 49.264C4.67932 49.264 3.07077 49.9255 1.87927 51.1048C1.82063 40.1759 1.64412 9.26468 1.66054 9.17161C1.75671 7.56186 2.67151 6.1147 4.08364 5.33647C5.49576 4.55825 7.20795 4.55831 8.61953 5.33647C10.0316 6.11464 10.9464 7.56186 11.0426 9.17161C11.0508 9.26367 10.8913 40.1415 10.8327 51.1048H10.8325ZM52.9999 9.17161L59.5319 2.60563L62.8275 5.96863L58.5063 10.264L56.6655 12.1054L47.4934 21.2517L44.1978 17.9561L52.9999 9.17161ZM45.8122 22.4878L41.9367 23.5134L42.9793 19.6379L45.8122 22.4878ZM21.9025 63.202L18.9517 60.2682L21.9025 57.3344L24.8363 60.2682L21.9025 63.202ZM27.9049 57.1824L26.4759 58.6285L24.7947 56.9473L23.5339 55.6947L24.98 54.2487H24.9794C25.0368 54.1894 25.1154 54.1554 25.1981 54.1554C25.2808 54.1554 25.3594 54.1894 25.4168 54.2487L27.939 56.7708H27.9384C27.9947 56.8224 28.0258 56.8963 28.0229 56.9726C28.0164 57.0564 27.9736 57.1332 27.905 57.1831L27.9049 57.1824ZM28.6954 54.9125L26.7198 52.9369V52.9375C26.3152 52.5258 25.7622 52.2948 25.1851 52.2948C24.6087 52.2948 24.0557 52.5258 23.6511 52.9375L21.6755 54.9131H12.731V11.1979H48.4597C44.6094 15.1069 41.2299 18.5873 41.1877 18.7133L39.9269 23.3876C39.7223 24.0039 39.8741 24.6824 40.3216 25.1527C40.6412 25.4564 41.0669 25.6224 41.5073 25.6154C41.7002 25.6136 41.892 25.5884 42.079 25.5397L46.7362 24.2953C46.9966 24.2279 51.9231 19.386 56.6559 14.7034V48.8423L50.9982 54.9204L28.6954 54.9125ZM64.1209 63.6552V63.6558C64.1209 63.7385 64.088 63.8176 64.0294 63.8757C63.9713 63.9343 63.8922 63.9672 63.8095 63.9672H45.1135L51.696 56.9472L53.5959 54.9129L56.7062 51.5505L58.5476 49.5749L64.163 43.5473L64.1209 63.6552Z" fill="white"/>
<path d="M48.713 42.0332H40.3062V30.5578C40.3027 30.4136 40.2828 30.2693 40.247 30.1292C40.1761 29.9057 40.0676 29.6958 39.928 29.507L34.8082 22.0584V22.059C34.4968 21.587 33.9696 21.3026 33.4043 21.3026C32.839 21.3026 32.3112 21.587 32.0004 22.059L26.8975 29.507C26.7656 29.697 26.6665 29.9069 26.6031 30.1291C26.5609 30.2681 26.538 30.413 26.5357 30.5578V42.0332H18.1289C17.926 42.0308 17.7308 42.1094 17.5859 42.2513C17.4405 42.3932 17.3578 42.5868 17.3555 42.7896V43.1427C17.369 43.5614 17.7102 43.895 18.1289 43.8997H48.713C49.1305 43.895 49.4689 43.5602 49.4777 43.1427V42.7896C49.4777 42.5879 49.3968 42.3938 49.2531 42.2519C49.1094 42.1094 48.9147 42.0308 48.713 42.0332L48.713 42.0332ZM33.3617 23.118V23.1684L38.1621 30.1291H28.6036L33.3617 23.118ZM38.4476 42.0332H28.3597V32.029H38.4476V42.0332Z" fill="white"/>
</svg>
