<svg width="163" height="41" viewBox="0 0 163 41" fill="none" xmlns="http://www.w3.org/2000/svg">
<path d="M28.1734 0H0V39.8726H28.1734V0Z" fill="#AD2A47"/>
<path d="M5.25269 15.1851V30.1791L22.9208 19.6737V15.1851L9.21607 23.3028V15.1851H5.25269Z" fill="white"/>
<path d="M22.9211 34.1664V30.1791L11.9143 26.168V30.1791L22.9211 34.1664Z" fill="white"/>
<path d="M22.9208 35.8616H5.25269V39.8655H22.9208V35.8616Z" fill="black"/>
<path d="M50.3303 23.8281H55.0815L49.9005 31.9936L55.0815 40.1592H50.3303L46.2475 33.7127H44.027V40.1592H39.9204V23.8281H44.027V30.2746H46.2475L50.3303 23.8281Z" fill="white"/>
<path d="M59.4267 25.8814C60.1913 25.0811 61.1102 24.4441 62.128 24.0089C63.1457 23.5737 64.241 23.3494 65.3479 23.3494C66.4547 23.3494 67.5501 23.5737 68.5678 24.0089C69.5855 24.4441 70.5045 25.0811 71.2691 25.8814C72.0684 26.6829 72.6982 27.6371 73.1207 28.6873C73.5432 29.7374 73.7498 30.8619 73.7283 31.9936C73.7521 33.1221 73.5464 34.2436 73.1237 35.2902C72.7009 36.3368 72.07 37.2866 71.2691 38.0819C70.5045 38.8822 69.5855 39.5192 68.5678 39.9544C67.5501 40.3896 66.4547 40.614 65.3479 40.614C64.241 40.614 63.1457 40.3896 62.128 39.9544C61.1102 39.5192 60.1913 38.8822 59.4267 38.0819C58.6226 37.2878 57.988 36.3387 57.5612 35.2923C57.1344 34.2458 56.9243 33.1236 56.9436 31.9936C56.9265 30.8604 57.1376 29.7353 57.5642 28.6852C57.9907 27.6352 58.6241 26.6817 59.4267 25.8814ZM62.3157 35.4556C62.6829 35.9051 63.1455 36.2673 63.6699 36.516C64.1943 36.7647 64.7675 36.8938 65.3479 36.8938C65.9283 36.8938 66.5015 36.7647 67.0259 36.516C67.5503 36.2673 68.0129 35.9051 68.3801 35.4556C69.1966 34.4868 69.6444 33.2606 69.6444 31.9936C69.6444 30.7266 69.1966 29.5004 68.3801 28.5316C68.0129 28.0822 67.5503 27.7199 67.0259 27.4712C66.5015 27.2225 65.9283 27.0934 65.3479 27.0934C64.7675 27.0934 64.1943 27.2225 63.6699 27.4712C63.1455 27.7199 62.6829 28.0822 62.3157 28.5316C61.4992 29.5004 61.0514 30.7266 61.0514 31.9936C61.0514 33.2606 61.4992 34.4868 62.3157 35.4556Z" fill="white"/>
<path d="M76.522 23.8281H83.0639C85.6664 23.8281 87.5526 24.2818 88.7464 25.1652C89.9402 26.0486 90.5132 27.4811 90.5132 29.4389C90.5132 31.3968 89.9163 32.7815 88.7464 33.665C87.5765 34.5484 85.6664 35.0259 83.0639 35.0259H80.6286V40.1592H76.522V23.8281ZM80.6286 31.5639H83.0639C84.2339 31.5639 85.0695 31.3968 85.6187 31.0625C85.871 30.871 86.0755 30.6237 86.2164 30.3399C86.3572 30.0562 86.4305 29.7438 86.4305 29.427C86.4305 29.1102 86.3572 28.7978 86.2164 28.514C86.0755 28.2303 85.871 27.983 85.6187 27.7915C85.0695 27.4572 84.21 27.2901 83.0639 27.2901H80.6286V31.5639Z" fill="white"/>
<path d="M97.4133 33.9276L104.122 23.8281H108.229V40.1592H104.122V30.0597L97.4133 40.1592H93.3066V23.8281H97.4133V33.9276Z" fill="white"/>
<path d="M127.807 27.7438C129.049 28.7943 129.669 30.2268 129.669 31.9936C129.669 33.7605 129.049 35.193 127.807 36.2435C126.566 37.2941 124.751 37.9626 122.411 38.2014V40.1592H118.281V38.2014C115.941 37.9626 114.15 37.318 112.885 36.2435C111.619 35.1691 111.022 33.7605 111.022 31.9936C111.022 30.2268 111.643 28.7943 112.885 27.7438C114.126 26.6932 115.941 26.0247 118.281 25.7859V23.8281H122.411V25.7859C124.751 26.0247 126.542 26.6693 127.807 27.7438ZM115.129 31.9936C115.129 33.2829 116.18 34.0947 118.281 34.4051V29.5583C116.18 29.9165 115.129 30.7044 115.129 31.9936ZM122.411 29.5583V34.4051C123.462 34.2619 124.25 33.9753 124.775 33.5695C125.028 33.3938 125.232 33.1574 125.37 32.8821C125.508 32.6068 125.574 32.3013 125.563 31.9936C125.563 30.7044 124.512 29.9165 122.411 29.5583Z" fill="white"/>
<path d="M144.592 23.8281V27.2901H136.57V30.2746H144.353V33.7127H136.57V36.6972H144.592V40.1592H132.463V23.8281H144.592Z" fill="white"/>
<path d="M152.184 33.9276L158.917 23.8282H163V40.1592H158.917V30.0597L152.184 40.1592H148.078V23.8282H152.184V33.9276ZM158.846 20.772C158.082 21.56 156.983 21.9658 155.551 21.9658C154.118 21.9658 153.02 21.56 152.256 20.772C151.492 19.9841 151.134 18.8142 151.134 17.3101H154.023C154.023 18.6949 154.524 19.3873 155.551 19.3873C156.577 19.3873 157.079 18.6949 157.079 17.3101H159.968C159.968 18.8142 159.61 19.9841 158.846 20.772Z" fill="white"/>
<path d="M40.3262 16.6654H41.6155C42.3318 16.6654 42.857 16.7848 43.1674 17.0235C43.3378 17.1541 43.4729 17.3251 43.5604 17.521C43.648 17.717 43.6852 17.9317 43.6688 18.1457C43.6875 18.3599 43.6512 18.5754 43.5635 18.7717C43.4758 18.9681 43.3395 19.1388 43.1674 19.2678C42.857 19.5066 42.3318 19.626 41.6155 19.626H39.8726V14.7314H43.3584V15.1373H40.3262V16.6654ZM40.3262 19.2201H41.6155C42.1646 19.2201 42.5705 19.1485 42.8093 18.9813C42.9398 18.887 43.0436 18.7604 43.1105 18.6139C43.1775 18.4674 43.2053 18.3061 43.1913 18.1457C43.2059 17.9886 43.1782 17.8304 43.111 17.6877C43.0438 17.5449 42.9396 17.4228 42.8093 17.3339C42.4452 17.1326 42.0305 17.0414 41.6155 17.0713H40.3262V19.2201Z" fill="white"/>
<path d="M47.2504 14.7314V15.1373H46.558V19.2201H47.2504V19.626H45.3643V19.2201H46.0805V15.1373H45.3643V14.7314H47.2504Z" fill="white"/>
<path d="M51.7389 17.0713C52.0444 17.1313 52.3215 17.2908 52.5268 17.5249C52.7199 17.7505 52.822 18.0399 52.8133 18.3367C52.8259 18.5434 52.7867 18.75 52.6991 18.9376C52.6115 19.1253 52.4784 19.288 52.3119 19.4111C51.8749 19.6778 51.3662 19.8028 50.8555 19.7692C50.2347 19.7692 49.7572 19.6499 49.4229 19.3872C49.2564 19.2642 49.1232 19.1014 49.0357 18.9137C48.9481 18.7261 48.9089 18.5195 48.9215 18.3128H49.399C49.3881 18.4628 49.4178 18.6129 49.485 18.7473C49.5523 18.8818 49.6545 18.9956 49.781 19.0769C50.0983 19.2871 50.4756 19.3877 50.8555 19.3634C51.2428 19.3878 51.6277 19.2873 51.9537 19.0769C52.0753 18.9907 52.1737 18.8759 52.2403 18.7426C52.3069 18.6094 52.3397 18.4618 52.3358 18.3128C52.3376 18.1609 52.3041 18.0105 52.2378 17.8738C52.1714 17.737 52.0742 17.6176 51.9537 17.5249C51.6204 17.334 51.2391 17.2428 50.8555 17.2623H50.2586V16.8803H50.8555C51.213 16.8948 51.5677 16.8123 51.8821 16.6415C51.9967 16.5671 52.09 16.4641 52.1528 16.3427C52.2156 16.2213 52.2457 16.0857 52.2403 15.9491C52.2434 15.8129 52.2123 15.6781 52.1497 15.5571C52.0871 15.4361 51.9951 15.3328 51.8821 15.2567C51.5722 15.0745 51.214 14.9912 50.8555 15.018C50.4971 14.9942 50.1398 15.0773 49.8288 15.2567C49.7142 15.3312 49.6209 15.4341 49.5581 15.5555C49.4953 15.6769 49.4652 15.8126 49.4707 15.9491H48.9931C48.9861 15.7534 49.0283 15.559 49.1159 15.3838C49.2035 15.2085 49.3337 15.0581 49.4945 14.9463C49.8966 14.6809 50.3748 14.5551 50.8555 14.5882C51.3434 14.5568 51.8287 14.6823 52.2403 14.9463C52.3962 15.0501 52.5223 15.1928 52.606 15.3603C52.6898 15.5279 52.7283 15.7144 52.7178 15.9014C52.7178 16.4983 52.3835 16.8803 51.7389 17.0713Z" fill="white"/>
<path d="M58.0423 16.9758V14.7314H58.5198V19.626H58.0423V17.3817H55.1294V19.626H54.6758V14.7314H55.1294V16.9758H58.0423Z" fill="white"/>
<path d="M63.9156 14.7314V15.1373H61.0505V16.9758H63.844V17.3817H61.0505V19.2201H63.9156V19.626H60.573V14.7314H63.9156Z" fill="white"/>
<path d="M67.9984 19.3394C68.2188 19.3391 68.4372 19.2987 68.6431 19.22C68.8275 19.1476 68.9974 19.0424 69.1445 18.9097C69.3508 18.7191 69.5207 18.4925 69.6459 18.2411L69.6936 18.1218H70.195L70.1473 18.1934C70.1283 18.2775 70.0961 18.3581 70.0518 18.4321C69.9291 18.6861 69.768 18.9196 69.5743 19.1245L69.1684 19.4588C69.0148 19.5586 68.8452 19.6313 68.667 19.6737C68.4509 19.7422 68.225 19.7745 67.9984 19.7692C67.6797 19.7718 67.3641 19.7073 67.072 19.5798C66.7799 19.4522 66.518 19.2646 66.3033 19.029C65.8347 18.5326 65.5777 17.8732 65.587 17.1906C65.5726 16.5071 65.8302 15.8458 66.3033 15.3522C66.5168 15.1135 66.7779 14.9221 67.0699 14.7905C67.3619 14.6589 67.6782 14.59 67.9984 14.5881C68.4129 14.5817 68.8199 14.698 69.1684 14.9224L69.5743 15.2567L69.6936 15.3999L69.7891 15.5193L69.8846 15.6626L69.9563 15.7819L70.0279 15.9013L70.0756 15.9968C70.0995 16.0207 70.0995 16.0446 70.1234 16.0923L70.1711 16.1639V16.2594H69.6698C69.6459 16.1878 69.622 16.1639 69.622 16.1401C69.5689 16.0305 69.5049 15.9265 69.431 15.8297C69.3408 15.6921 69.2368 15.5641 69.1206 15.4477C68.9714 15.3365 68.8114 15.2405 68.6431 15.1612C68.4316 15.0733 68.2034 15.0325 67.9746 15.0418C67.7159 15.0378 67.4595 15.0914 67.2241 15.1988C66.9887 15.3061 66.7802 15.4646 66.6137 15.6626C66.2426 16.0851 66.038 16.6283 66.038 17.1906C66.038 17.7529 66.2426 18.2961 66.6137 18.7187C66.786 18.916 66.999 19.0736 67.238 19.1808C67.4771 19.2879 67.7365 19.342 67.9984 19.3394Z" fill="white"/>
<path d="M73.6567 18.0978H71.7944V17.6919H73.6567V18.0978Z" fill="white"/>
<path d="M79.363 14.7314V19.2201H79.8883V20.7481H79.4108V19.626H75.519V14.7314H75.9966V19.2201H78.9094V14.7314H79.363Z" fill="white"/>
<path d="M85.0457 14.7314V15.1373H82.1806V16.9758H84.9741V17.3817H82.1806V19.2201H85.0457V19.626H81.7031V14.7314H85.0457Z" fill="white"/>
<path d="M90.3697 16.9758V14.7314H90.8472V19.626H90.3697V17.3817H87.4807V19.626H87.0032V14.7314H87.4807V16.9758H90.3697Z" fill="white"/>
<path d="M94.8823 19.626H94.4047V15.1373H92.6379V14.7314H96.6252V15.1373H94.8823V19.626Z" fill="white"/>
<path d="M98.4163 14.7314H100.183C100.899 14.7314 101.425 14.8508 101.735 15.0896C101.907 15.2238 102.043 15.399 102.131 15.5991C102.218 15.7992 102.255 16.018 102.236 16.2356C102.253 16.4496 102.216 16.6643 102.128 16.8603C102.04 17.0563 101.905 17.2273 101.735 17.3578C101.425 17.5965 100.899 17.7159 100.183 17.7159H98.8938V19.626H98.4163V14.7314ZM98.8938 17.31H100.183C100.598 17.3399 101.013 17.2487 101.377 17.0474C101.505 16.9568 101.608 16.8343 101.675 16.692C101.742 16.5497 101.771 16.3924 101.759 16.2356C101.773 16.0752 101.745 15.9139 101.678 15.7674C101.611 15.6209 101.507 15.4943 101.377 15.4C101.013 15.1987 100.598 15.1075 100.183 15.1373H98.8938V17.31Z" fill="white"/>
</svg>
