<svg width="67" height="54" viewBox="0 0 67 54" fill="none" xmlns="http://www.w3.org/2000/svg">
<path d="M56.1822 51.075H11.1826V21.814H8.25916V52.538C8.25916 53.3453 8.91337 53.9999 9.72107 53.9999H57.6442C58.4515 53.9999 59.1061 53.3457 59.1061 52.538L59.1056 21.814H56.1822L56.1822 51.075Z" fill="#AD2A47"/>
<path d="M34.1209 0.184228C33.6791 -0.0614095 33.1418 -0.0614095 32.7006 0.184228L0 18.3646L1.42032 20.9195L33.4109 3.13467L65.4015 20.9208L66.8219 18.3659L34.1209 0.184228Z" fill="#AD2A47"/>
<path d="M45.4477 19.8387L43.5906 18.7665C43.1384 18.5055 42.5813 18.5055 42.1287 18.7665L40.2716 19.8387C39.8194 20.0997 39.5406 20.5826 39.5406 21.1046V23.2489C39.5406 23.7709 39.8189 24.2538 40.2716 24.5148L41.3869 25.1586V31.0622L35.1245 36.1849V21.543L36.2601 20.8873C36.7122 20.6263 36.9911 20.1435 36.9911 19.6215V17.4771C36.9911 16.9551 36.7127 16.4723 36.2601 16.2113L34.403 15.1386C33.9509 14.8776 33.3937 14.8776 32.9411 15.1386L31.084 16.2113C30.6319 16.4723 30.353 16.9551 30.353 17.4771V19.6215C30.353 20.1435 30.6314 20.6263 31.084 20.8873L32.2018 21.5326V31.9941L25.9573 26.8867V25.1593L27.0726 24.5155C27.5247 24.2545 27.8035 23.7717 27.8035 23.2497V21.1053C27.8035 20.5833 27.5252 20.1005 27.0726 19.8395L25.2155 18.7673C24.7633 18.5063 24.2062 18.5063 23.7536 18.7673L21.8965 19.8395C21.4443 20.1005 21.1655 20.5833 21.1655 21.1053V23.2497C21.1655 23.7717 21.4438 24.2545 21.8965 24.5155L23.0341 25.1727V27.58C23.0341 28.0183 23.2307 28.4338 23.5704 28.7111L32.2019 35.7717V47.5454H35.1253V39.9624L43.7747 32.8874C44.1144 32.6096 44.3111 32.1946 44.3111 31.7563L44.3115 25.172L45.4491 24.5149C45.9013 24.2539 46.1801 23.771 46.1801 23.249V21.1047C46.1791 20.5827 45.9003 20.1003 45.4481 19.8388L45.4477 19.8387ZM24.0876 21.949L24.4833 21.7207L24.879 21.949V22.4061L24.4833 22.6344L24.0876 22.4061V21.949ZM33.2758 18.3209L33.6715 18.0926L34.0672 18.3209V18.778L33.6715 19.0063L33.2758 18.778V18.3209ZM42.4635 21.949L42.8592 21.7207L43.2549 21.949V22.4061L42.8592 22.6344L42.4635 22.4061V21.949Z" fill="#AD2A47"/>
<path d="M27.0832 34.3209L25.2261 33.2482C24.774 32.9872 24.2168 32.9872 23.7642 33.2482L21.9071 34.3209C21.455 34.5819 21.1761 35.0648 21.1761 35.5867V37.7311C21.1761 38.2531 21.4545 38.736 21.9071 38.9969L23.0333 39.6472V47.5447H25.9567V39.6472L27.0829 38.9969C27.535 38.736 27.8139 38.2531 27.8139 37.7311V35.5867C27.8139 35.0648 27.5355 34.5824 27.0834 34.3209H27.0832ZM24.0989 36.4307L24.4946 36.2024L24.8903 36.4307V36.8878L24.4946 37.1161L24.0989 36.8878V36.4307Z" fill="#AD2A47"/>
<path d="M45.4475 38.4973L43.5904 37.4246C43.1382 37.1636 42.5811 37.1636 42.1285 37.4246L40.2714 38.4973C39.8192 38.7583 39.5404 39.2412 39.5404 39.7631V41.9075C39.5404 42.4295 39.8187 42.9123 40.2714 43.1733L41.3975 43.8236V47.5449H44.321V43.8236L45.4471 43.1733C45.8993 42.9123 46.1781 42.4295 46.1781 41.9075V39.7631C46.1786 39.2412 45.8998 38.7588 45.4476 38.4973H45.4475ZM42.4637 40.6071L42.8594 40.3788L43.2551 40.6071V41.0642L42.8594 41.2925L42.4637 41.0642V40.6071Z" fill="#AD2A47"/>
</svg>
