<svg width="32" height="70" viewBox="0 0 32 70" fill="none" xmlns="http://www.w3.org/2000/svg">
<path d="M27.9379 45.1453V10.1386C27.9379 6.51621 26.0056 3.16949 22.869 1.35858C19.7319 -0.45286 15.8672 -0.45286 12.7307 1.35858C9.59407 3.16949 7.66176 6.51621 7.66176 10.1386V12.5145H1.55038C0.694752 12.5145 0.000488281 13.2083 0.000488281 14.0644C0.000488281 14.9201 0.694752 15.6138 1.55038 15.6138H7.66176V19.8286H1.55038C0.694752 19.8286 0.000488281 20.5223 0.000488281 21.3785C0.000488281 22.2341 0.694752 22.9278 1.55038 22.9278H7.66176V27.1426H1.55038C0.694752 27.1426 0.000488281 27.8369 0.000488281 28.6925C0.000488281 29.5487 0.694752 30.2424 1.55038 30.2424H7.66176V34.4572H1.55038C0.694752 34.4572 0.000488281 35.1509 0.000488281 36.0066C0.000488281 36.8627 0.694752 37.5565 1.55038 37.5565H7.66176V45.1445C5.03153 47.7508 3.56678 51.3093 3.60052 55.012C3.60052 60.085 6.30699 64.7726 10.7003 67.3094C15.0936 69.8457 20.5066 69.8457 24.9001 67.3094C29.2934 64.7726 31.9999 60.085 31.9999 55.012C32.0336 51.3093 30.5684 47.7508 27.9382 45.1445L27.9379 45.1453ZM17.7996 66.1117C14.857 66.1086 12.0353 64.938 9.95458 62.8573C7.87336 60.7766 6.70283 57.9549 6.69965 55.0123C6.65866 51.9545 7.94547 49.0296 10.2276 46.9941C10.5664 46.7004 10.7615 46.2734 10.761 45.8245V10.139C10.761 7.62395 12.1023 5.30044 14.2805 4.04317C16.4583 2.78541 19.1414 2.78541 21.319 4.04317C23.4968 5.30041 24.8386 7.62395 24.8386 10.139V45.8245C24.8386 46.2734 25.0332 46.7004 25.3725 46.9941C27.654 49.0302 28.9408 51.9551 28.9004 55.0123C28.8973 57.9553 27.7262 60.7766 25.6455 62.8573C23.5642 64.938 20.7426 66.1086 17.7996 66.1117H17.7996Z" fill="#AD2A47"/>
<path d="M19.3489 47.0661V25.4568C19.3489 24.6012 18.6552 23.9075 17.799 23.9075C16.9434 23.9075 16.2497 24.6012 16.2497 25.4568V47.0661C13.7487 47.5824 11.6696 49.3103 10.7039 51.6738C9.73776 54.0378 10.0128 56.7271 11.4366 58.8468C12.8603 60.9664 15.2462 62.2381 17.7995 62.2381C20.3528 62.2381 22.7388 60.9663 24.1625 58.8468C25.5863 56.7266 25.8607 54.0373 24.8951 51.6732C23.929 49.3098 21.8498 47.5824 19.3488 47.0661H19.3489ZM17.799 59.1378C16.5885 59.1373 15.4273 58.6563 14.5716 57.8002C13.7154 56.9435 13.2345 55.7823 13.235 54.5717C13.235 53.3611 13.716 52.1999 14.5727 51.3437C15.4288 50.4881 16.5901 50.0071 17.8006 50.0071C19.0117 50.0076 20.1724 50.4886 21.0286 51.3448C21.8847 52.2014 22.3652 53.3626 22.3652 54.5733C22.3636 55.7838 21.8821 56.9441 21.0265 57.7996C20.1703 58.6558 19.0095 59.1367 17.799 59.1378Z" fill="#AD2A47"/>
</svg>
