<svg width="46" height="65" viewBox="0 0 46 65" fill="none" xmlns="http://www.w3.org/2000/svg">
<path d="M44.7406 15.6961C40.4559 10.1166 32.8417 8.07635 28.3093 7.34808C28.2915 6.02889 27.8113 4.82271 27.0268 3.8879L39.0147 2.51585C39.6941 2.41125 40.1609 1.76696 40.0579 1.07598C39.9545 0.385493 39.3185 -0.091879 38.6431 0.0149474L20.8842 2.0475C18.164 2.46144 16.171 3.74006 15.509 5.69968C14.6561 5.7058 13.9256 6.20599 13.5605 6.92985C6.73913 8.27297 1.72228 14.5 1.72228 21.8884V33.5292C1.38733 33.6711 1.14086 33.9932 1.11025 34.3827L0.00304168 48.8299C-0.0186569 49.112 0.0764851 49.3891 0.264539 49.5955C0.452041 49.803 0.716885 49.921 0.99452 49.921H4.93428H4.95097C5.49957 49.921 5.94579 49.4681 5.94579 48.9078C5.94579 48.8182 5.93355 48.7292 5.91241 48.6463L4.81911 34.3814C4.78906 33.9919 4.54369 33.6692 4.20819 33.5279L4.20763 21.8888C4.20763 15.8125 8.28982 10.6248 13.867 9.43685C14.2187 9.84469 14.7099 10.1173 15.2674 10.1835V12.24C10.6044 12.5138 6.89382 16.4602 6.89382 21.2724V55.9525C6.89382 60.9416 10.882 65 15.7843 65H25.3442C30.2465 65 34.2347 60.9417 34.2347 55.9525V21.2724C34.2347 16.473 30.543 12.5333 25.8984 12.2423V11.9736C26.7157 11.4249 27.375 10.6527 27.7973 9.74415C31.8956 10.3562 39.0036 12.3319 42.7829 17.2538C43.2063 17.8051 43.9864 17.9014 44.5283 17.4713C45.0675 17.0412 45.1626 16.2467 44.7403 15.6953L44.7406 15.6961ZM24.6544 14.7552H25.3437C28.8757 14.7552 31.7478 17.6795 31.7478 21.2733V55.9535C31.7478 59.5477 28.8746 62.4716 25.3437 62.4716L15.7834 62.4721C12.2514 62.4721 9.37818 59.5478 9.37818 55.954L9.37874 21.2739C9.37874 17.6797 12.2525 14.7558 15.7839 14.7558H16.51C17.196 14.7558 17.753 14.1894 17.753 13.4917V10.2118H18.3633C19.2997 11.8037 21.0062 12.8752 22.958 12.8752C23.111 12.8752 23.2629 12.8646 23.412 12.8518V13.4917C23.4109 14.1894 23.9684 14.7558 24.6544 14.7558L24.6544 14.7552ZM23.4109 10.4343C23.2617 10.4577 23.1115 10.4816 22.9568 10.4816C22.337 10.4816 21.7595 10.2896 21.2804 9.95969C20.4797 9.40998 19.9517 8.47865 19.9517 7.42306C19.9517 6.79156 20.1409 6.20402 20.4647 5.71612C20.9171 5.03343 21.6348 4.54993 22.4649 4.40972L22.7498 4.37689C22.8194 4.37188 22.8861 4.36354 22.9562 4.36354C24.4851 4.36354 25.737 5.53585 25.924 7.04203C25.9402 7.16833 25.9613 7.29185 25.9613 7.42261C25.9624 8.95051 24.8519 10.2089 23.4108 10.4344L23.4109 10.4343Z" fill="#AD2A47"/>
</svg>
