<svg width="60" height="60" viewBox="0 0 60 60" fill="none" xmlns="http://www.w3.org/2000/svg">
<path d="M5.63718 37.491C6.62509 37.491 7.59538 37.2286 8.44899 36.7307V58.1112H2.82537V39.3658C2.82537 38.8482 2.40569 38.4285 1.8881 38.4285C1.37051 38.4285 0.950828 38.8482 0.950828 39.3658V59.0485C0.950828 59.297 1.04958 59.5355 1.22531 59.7112C1.40105 59.887 1.63956 59.9857 1.8881 59.9857H58.1244C58.3729 59.9857 58.6114 59.887 58.7871 59.7112C58.9629 59.5355 59.0616 59.297 59.0616 59.0485V35.6167C59.0579 35.4548 59.011 35.297 58.9256 35.1593C59.9441 33.7598 60.2596 31.9689 59.7817 30.3057C59.3035 28.6425 58.085 27.293 56.4787 26.6479C54.8728 26.0026 53.0593 26.1349 51.5634 27.0052V0.937271C51.5634 0.688728 51.4647 0.450222 51.2889 0.274486C51.1132 0.0987509 50.8747 0 50.6262 0H9.38623C8.86864 0 8.44896 0.419683 8.44896 0.937271V27.0052C6.93508 26.1257 5.09782 26.0014 3.47928 26.6692C1.86086 27.3366 0.645728 28.7203 0.192088 30.4112C-0.261486 32.1025 0.0987798 33.908 1.16619 35.2959C2.23358 36.6838 3.88641 37.4956 5.63702 37.4914L5.63718 37.491ZM51.5635 58.1109V36.7304C52.4166 37.2288 53.3873 37.4911 54.3753 37.4911C55.3632 37.4911 56.3339 37.2288 57.1871 36.7304V58.1109H51.5635ZM54.3753 28.1183C55.3694 28.1183 56.3231 28.5133 57.0264 29.2162C57.7294 29.9196 58.1244 30.8732 58.1244 31.8673C58.1244 32.8615 57.7294 33.8152 57.0264 34.5185C56.323 35.2214 55.3694 35.6164 54.3753 35.6164C53.3811 35.6164 52.4275 35.2214 51.7241 34.5185C51.0212 33.8151 50.6262 32.8615 50.6262 31.8673C50.6262 30.8732 51.0212 29.9195 51.7241 29.2162C52.4275 28.5133 53.3811 28.1183 54.3753 28.1183ZM42.1907 58.1109H30.9435V57.4933L40.1221 45.5605C40.438 45.1501 40.361 44.5614 39.9506 44.2459C39.5401 43.93 38.9514 44.007 38.6359 44.4175L30.9436 54.417V49.0579L36.5175 41.812V41.8115C36.8334 41.4011 36.7564 40.8123 36.3459 40.4969C35.9354 40.181 35.3467 40.258 35.0313 40.6684L30.9437 45.9817V21.5569C30.9437 21.0393 30.524 20.6196 30.0064 20.6196C29.4888 20.6196 29.0691 21.0393 29.0691 21.5569V58.1105H17.8219V42.4961L23.3957 35.2502V35.2497C23.7116 34.8393 23.6346 34.2506 23.2242 33.9351C22.8137 33.6192 22.225 33.6962 21.9095 34.1067L17.8219 39.4199V34.998L27.0006 23.0652C27.3165 22.6547 27.2395 22.066 26.829 21.7505C26.4185 21.4346 25.8298 21.5116 25.5144 21.9221L17.8221 31.9217V19.6814H42.1911L42.1907 58.1109ZM10.3235 1.87468H49.6889V10.3101H10.3235V1.87468ZM10.3235 35.6164V34.9695C10.9349 34.0507 11.2608 32.9712 11.2608 31.8673C11.2608 30.7635 10.9349 29.684 10.3235 28.7651V12.1845H49.6889V28.7651C49.0776 29.684 48.7516 30.7635 48.7516 31.8673C48.7516 32.9712 49.0776 34.0507 49.6889 34.9695V58.111H44.0653V18.7457C44.0653 18.4971 43.9665 18.2586 43.7908 18.0829C43.6151 17.9071 43.3766 17.8084 43.128 17.8084H16.8844C16.3668 17.8084 15.9472 18.2281 15.9472 18.7457V58.111H10.3235V35.6164ZM5.63718 28.1183C6.63135 28.1183 7.58499 28.5133 8.28832 29.2162C8.99127 29.9196 9.38626 30.8732 9.38626 31.8673C9.38626 32.8615 8.99127 33.8152 8.28832 34.5185C7.58495 35.2214 6.63133 35.6164 5.63718 35.6164C4.64303 35.6164 3.68937 35.2214 2.98604 34.5185C2.28309 33.8151 1.8881 32.8615 1.8881 31.8673C1.8881 30.8732 2.28309 29.9195 2.98604 29.2162C3.68942 28.5133 4.64303 28.1183 5.63718 28.1183Z" fill="#AD2A47"/>
<path d="M26.2573 2.81201H20.6336C20.296 2.81201 19.9842 2.99402 19.8181 3.28776C19.6516 3.58191 19.6566 3.9426 19.8302 4.23214L22.6421 8.9185C22.8115 9.2001 23.1166 9.37249 23.4454 9.37249C23.7743 9.37249 24.0794 9.2001 24.2488 8.9185L27.0606 4.23214C27.2343 3.9426 27.2393 3.58191 27.0728 3.28776C26.9066 2.99402 26.5949 2.81201 26.2572 2.81201H26.2573ZM23.4454 6.61337L22.2898 4.68655H24.6011L23.4454 6.61337Z" fill="#AD2A47"/>
<path d="M37.3704 3.26641C37.1888 3.00154 36.8884 2.84338 36.5671 2.84338C36.2457 2.84338 35.9453 3.00155 35.7637 3.26641L32.9519 7.95276C32.7782 8.24231 32.7732 8.60299 32.9397 8.89715C33.1058 9.19088 33.4176 9.37289 33.7552 9.37289H39.3789C39.7165 9.37289 40.0283 9.19088 40.1944 8.89715C40.3609 8.60299 40.3559 8.24231 40.1822 7.95276L37.3704 3.26641ZM35.4114 7.49837L36.5671 5.57156L37.7227 7.49837H35.4114Z" fill="#AD2A47"/>
<path d="M25.5138 29.4209L23.6393 31.8578C23.325 32.2678 23.4024 32.8545 23.8116 33.17C23.9744 33.2972 24.1757 33.3666 24.3824 33.3666C24.6736 33.367 24.9489 33.2319 25.1267 33.0009L27.0013 30.564C27.3168 30.1535 27.2402 29.5648 26.8297 29.2494C26.4193 28.9335 25.8305 29.0104 25.5147 29.4209L25.5138 29.4209Z" fill="#AD2A47"/>
<path d="M37.5042 39.9279C37.7955 39.9283 38.0708 39.7932 38.2486 39.5622L40.1231 37.1253C40.4386 36.7148 40.3621 36.1261 39.9516 35.8106C39.5411 35.4947 38.9524 35.5717 38.6365 35.9822L36.762 38.4191C36.4481 38.8292 36.5251 39.4158 36.9344 39.7313C37.0971 39.8585 37.2976 39.9275 37.5043 39.9279L37.5042 39.9279Z" fill="#AD2A47"/>
</svg>
