<svg width="69" height="61" viewBox="0 0 69 61" fill="none" xmlns="http://www.w3.org/2000/svg">
<path d="M45.6298 48.9681C43.7889 48.9681 42.291 50.4661 42.291 52.3069C42.291 54.1477 43.7889 55.6456 45.6298 55.6456C47.4706 55.6456 48.9685 54.1477 48.9685 52.3069C48.9685 50.4661 47.4706 48.9681 45.6298 48.9681ZM45.6298 53.4198C45.0157 53.4198 44.5168 52.92 44.5168 52.3069C44.5168 51.6938 45.0157 51.194 45.6298 51.194C46.2438 51.194 46.7427 51.6938 46.7427 52.3069C46.7427 52.92 46.2438 53.4198 45.6298 53.4198Z" fill="#AD2A47"/>
<path d="M7.79077 55.6456C9.63159 55.6456 11.1295 54.1477 11.1295 52.3069C11.1295 50.4661 9.63159 48.9681 7.79077 48.9681C5.94994 48.9681 4.45203 50.4661 4.45203 52.3069C4.45203 54.1477 5.94994 55.6456 7.79077 55.6456ZM7.79077 51.194C8.40485 51.194 8.90368 51.6938 8.90368 52.3069C8.90368 52.92 8.40485 53.4198 7.79077 53.4198C7.17668 53.4198 6.67785 52.92 6.67785 52.3069C6.67785 51.6938 7.17668 51.194 7.79077 51.194Z" fill="#AD2A47"/>
<path d="M64.5493 0H55.7607L51.5773 38.7001C50.8415 38.1646 49.9457 37.8396 48.9684 37.8396H46.5379C46.6626 37.4903 46.7426 37.1182 46.7426 36.7267V12.2426C46.7426 10.4018 45.2447 8.90387 43.4039 8.90387H12.2423C10.4015 8.90387 8.90355 10.4018 8.90355 12.2426V36.7267C8.90355 38.5675 10.4015 40.0654 12.2423 40.0654H48.9684C50.1961 40.0654 51.1943 41.0636 51.1943 42.2913C51.1943 43.5189 50.1961 44.5171 48.9684 44.5171H7.79064C3.49594 44.5171 0.000244141 48.0119 0.000244141 52.3075C0.000244141 56.6031 3.49594 60.0979 7.79064 60.0979C12.0853 60.0979 15.581 56.6031 15.581 52.3075C15.581 50.1283 14.6798 48.1584 13.2315 46.7429H40.1869C38.7401 48.1584 37.8388 50.1283 37.8388 52.3075C37.8388 56.6031 41.3345 60.0979 45.6292 60.0979C49.9239 60.0979 53.4196 56.6031 53.4196 52.3075C53.4196 49.9435 52.3568 47.8261 50.6884 46.3957C52.2554 45.7359 53.3584 44.2022 53.4071 42.4106L53.4126 42.4116L57.0355 8.90333H64.5486C67.0035 8.90333 69.0002 6.90658 69.0002 4.45168C69.0002 1.99678 67.0035 2.71707e-05 64.5486 2.71707e-05L64.5493 0ZM28.9361 13.355V15.5808H26.7102V13.355H24.4844V15.5808H22.2586V11.1291H33.3877V15.5808H31.1619V13.355H28.9361ZM26.7102 35.6132V33.3874H28.9361V35.6132H31.1619V33.3874H33.3877V37.8391H22.2586V33.3874H24.4844V35.6132H26.7102ZM35.6136 37.8391V31.1616H20.0328V37.8391H12.2424C11.6283 37.8391 11.1295 37.3392 11.1295 36.7261V12.242C11.1295 11.629 11.6283 11.1291 12.2424 11.1291H20.0328V17.8066H35.6136V11.1291H43.4039C44.018 11.1291 44.5169 11.629 44.5169 12.242V36.7261C44.5169 37.3392 44.018 37.8391 43.4039 37.8391H35.6136ZM13.3553 52.3069C13.3553 55.3754 10.8592 57.8715 7.79072 57.8715C4.72225 57.8715 2.22615 55.3754 2.22615 52.3069C2.22615 49.2385 4.72225 46.7424 7.79072 46.7424C10.8592 46.7424 13.3553 49.2385 13.3553 52.3069ZM51.1943 52.3069C51.1943 55.3754 48.6982 57.8715 45.6298 57.8715C42.5613 57.8715 40.0652 55.3754 40.0652 52.3069C40.0652 49.2385 42.5613 46.7424 45.6298 46.7424C48.6982 46.7424 51.1943 49.2385 51.1943 52.3069ZM64.5493 6.67748H57.2766L57.7585 2.22583H64.5493C65.777 2.22583 66.7751 3.22398 66.7751 4.45165C66.7751 5.67933 65.777 6.67748 64.5493 6.67748H64.5493Z" fill="#AD2A47"/>
</svg>
