<svg width="60" height="60" viewBox="0 0 60 60" fill="none" xmlns="http://www.w3.org/2000/svg">
<path d="M58.5001 0H1.49987C0.671186 0 0 0.671212 0 1.49987V58.5001C0 59.3288 0.671212 60 1.49987 60H48.0001C48.8288 60 49.5 59.3288 49.5 58.5001L49.5005 31.5H58.5004C59.3291 31.5 60.0003 30.8288 60.0003 30.0001V1.50001C60.0003 0.67132 59.329 0.000133856 58.5004 0.000133856L58.5001 0ZM47.2501 51.7502H41.262C41.4493 48.5333 44.0342 45.9562 47.2501 45.7673V51.7502ZM47.2501 30.0001V45.019C43.4932 45.2162 40.4955 48.3263 40.5003 52.1334C40.4998 52.3359 40.6724 52.5001 40.8749 52.5001H47.2502V57.75H34.5003V29.9999C34.5003 29.5861 34.1644 29.2497 33.7501 29.2497H27.0003C26.5865 29.2497 26.2501 29.5856 26.2501 29.9999V50.25H14.2498V39C14.2498 38.5861 13.9139 38.2497 13.4995 38.2497L2.25002 38.2503V18.0002H6.75031C7.16413 18.0002 7.50053 17.6643 7.50053 17.2499V10.5112C10.8419 10.7063 13.5007 13.4859 13.5007 16.8749L13.5002 17.2506C13.5002 17.6644 13.836 18.0008 14.2504 18.0008H47.2505C47.6643 18.0008 48.0008 17.6649 48.0008 17.2506V16.8755C48.0008 13.4864 50.6595 10.7059 54.0009 10.5117L54.0004 17.2505C54.0004 17.6643 54.3363 18.0007 54.7506 18.0007H57.7504V29.2507L48.0002 29.2502C47.5864 29.2502 47.2505 29.5866 47.2505 30.0004L47.2501 30.0001ZM27 57.7503H26.2498V52.8755C26.2498 52.6694 26.0818 52.5004 25.8747 52.5004H24.3748C24.1676 52.5004 23.9997 52.6694 23.9997 52.8755C23.9997 53.0816 24.1676 53.2506 24.3748 53.2506H25.4996V57.7509L14.9998 57.7504V53.2501H17.6251C17.8323 53.2501 18.0002 53.0811 18.0002 52.875C17.9997 52.6694 17.8317 52.5004 17.6251 52.5004H14.6253C14.4182 52.5004 14.2502 52.6694 14.2502 52.8755L14.2497 57.7503H13.4995V51.7501H26.9995L27 57.7503ZM12.7499 57.7503H11.9997L12.0002 49.8751C12.0002 49.669 11.8323 49.5 11.6251 49.5C11.4179 49.5005 11.25 49.669 11.25 49.8751V57.7503H2.25011V41.2502H11.25V43.1252C11.25 43.3313 11.4179 43.5003 11.6251 43.5003C11.8323 43.5003 12.0002 43.3313 12.0002 43.1252V40.8751C12.0002 40.6689 11.8323 40.4999 11.6251 40.4999H2.25008V39.7497H12.7499L12.7499 57.7503ZM32.25 57.7503V48.3752C32.25 48.1691 32.081 48.0001 31.8749 48.0001C31.6688 48.0001 31.4998 48.1691 31.4998 48.3752V57.7503H29.2496V40.8752C29.2496 40.6691 29.0817 40.5001 28.8745 40.5001C28.6679 40.5001 28.5 40.6691 28.5 40.8752V57.7503H27.7497V30.7501H32.9996V57.7503H32.25ZM57.7501 2.25001V16.5001H54.7504V15.7499H56.6254C56.8315 15.7499 57.0005 15.5819 57.0005 15.3747V3.37443C57.0005 3.16725 56.8315 2.99932 56.6254 2.99932H53.6256C53.4195 2.99932 53.2505 3.16725 53.2505 3.37443C53.2505 3.5816 53.4195 3.74953 53.6256 3.74953L56.2504 3.75006V15.0001H54.7505V10.1254C54.7505 9.91818 54.5815 9.75025 54.3754 9.75025C51.0963 9.75025 48.334 11.9799 47.5099 15.0001H36.0003V3.75008H46.8752C47.0814 3.75008 47.2503 3.58215 47.2503 3.37498C47.2503 3.16832 47.0814 2.99987 46.8752 2.99987H35.6252C35.4191 2.99987 35.2501 3.1678 35.2501 3.37498V15.3753C35.2501 15.5825 35.4191 15.7504 35.6252 15.7504H47.3476C47.3084 15.9963 47.2822 16.2469 47.2697 16.5006L34.5003 16.5001V2.25004L57.7501 2.25001ZM33 16.5001H14.2312C14.2176 16.2463 14.1919 15.9963 14.1522 15.7499L31.875 15.7504C32.0812 15.7504 32.2501 15.5824 32.2501 15.3753V3.37495C32.2501 3.16777 32.0812 2.99984 31.875 2.99984H28.8753C28.6681 2.99984 28.5002 3.16777 28.5002 3.37495C28.5002 3.58212 28.6681 3.75006 28.8753 3.75006H31.5V15.0001H13.9915C13.1649 11.9799 10.4042 9.75022 7.12492 9.75022C6.91775 9.75022 6.74981 9.91815 6.74981 10.1253V15.0001H3.75007V3.75003H22.1251C22.3323 3.75003 22.5003 3.5821 22.5003 3.37492C22.5003 3.16827 22.3323 2.99981 22.1251 2.99981H3.37506C3.16789 2.99981 2.99995 3.16775 2.99995 3.37492V15.3752C2.99995 15.5824 3.16789 15.7504 3.37506 15.7504H6.74995V16.5006H2.24966L2.25018 2.25051H33.0003L33 16.5001ZM29.25 36.3752V38.6253C29.25 38.8314 29.0821 39.0004 28.8749 39.0004C28.6682 38.9999 28.5003 38.8314 28.5003 38.6248V36.3746C28.5003 36.1685 28.6682 35.9995 28.8754 35.9995C29.0821 36.0001 29.25 36.1685 29.25 36.3752ZM32.2503 31.8749V41.6251C32.2503 41.8312 32.0813 42.0002 31.8752 42.0002C31.669 42.0002 31.5001 41.8312 31.5001 41.6251V32.25H29.2499V34.125C29.2499 34.3312 29.082 34.5001 28.8748 34.5001C28.6682 34.5001 28.5002 34.3312 28.5002 34.125V31.8749C28.5002 31.6687 28.6682 31.4998 28.8753 31.4998H31.8751C32.0812 31.4998 32.2502 31.6687 32.2502 31.8749H32.2503ZM12.0002 45.3749V47.6251C12.0002 47.8312 11.8323 48.0002 11.6251 48.0002C11.4179 47.9997 11.25 47.8312 11.25 47.6251V45.3749C11.25 45.1688 11.4179 44.9998 11.6251 44.9998C11.8317 44.9998 12.0002 45.1688 12.0002 45.3749ZM19.5002 52.875C19.5002 52.6688 19.6682 52.4999 19.8753 52.4999H22.1255C22.3326 52.4999 22.5006 52.6688 22.5006 52.875C22.5001 53.0811 22.3321 53.2501 22.125 53.2501H19.8748C19.6682 53.2501 19.5002 53.0811 19.5002 52.875ZM32.2501 43.8751V46.1252C32.2501 46.3313 32.0812 46.5003 31.875 46.5003C31.6689 46.4998 31.4999 46.3313 31.4999 46.1247V43.8745C31.4999 43.6684 31.6689 43.4994 31.875 43.4994C32.0812 43.5 32.2501 43.6684 32.2501 43.8751ZM23.9998 3.37488C23.9998 3.16771 24.1678 2.99977 24.3749 2.99977H26.6251C26.8323 2.99977 27.0002 3.16771 27.0002 3.37488C27.0002 3.58206 26.8317 3.74999 26.6251 3.74999H24.3749C24.1678 3.74999 23.9998 3.58206 23.9998 3.37488ZM48.75 3.37488C48.75 3.16771 48.9189 2.99977 49.1251 2.99977H51.4375C51.6447 2.99977 51.8126 3.16771 51.8126 3.37488C51.8126 3.58206 51.6447 3.74999 51.4375 3.74999H49.1251C48.9189 3.74999 48.75 3.58206 48.75 3.37488Z" fill="#AD2A47"/>
</svg>
