<svg width="64" height="64" viewBox="0 0 64 64" fill="none" xmlns="http://www.w3.org/2000/svg">
<path d="M62.998 28.4996C63.4337 28.5 63.8194 28.2188 63.9516 27.8036C64.0842 27.3889 63.9328 26.9363 63.5779 26.684L45.2299 13.6638C45.0652 14.3446 44.8518 15.0125 44.5915 15.6628L62.4207 28.3151C62.589 28.4351 62.7913 28.4994 62.9979 28.4994L62.998 28.4996Z" fill="#AD2A47"/>
<path d="M1.57944 28.3144L19.4086 15.6622C19.1484 15.0118 18.935 14.344 18.7703 13.6632L0.422225 26.6834C0.205717 26.837 0.0588419 27.07 0.0142032 27.3316C-0.0304389 27.5932 0.0311676 27.8619 0.184736 28.0785C0.338309 28.295 0.57133 28.4414 0.832934 28.4856C1.09454 28.5298 1.36327 28.4682 1.57934 28.3146L1.57944 28.3144Z" fill="#AD2A47"/>
<path d="M32.0001 28.999C32.5416 28.999 33.0603 28.7793 33.4371 28.39C34.4669 27.3258 43.4997 17.8198 43.4997 11.7825C43.4997 5.28579 38.3409 0 32.0006 0C25.6604 0 20.5015 5.28556 20.5015 11.7825C20.5015 17.8203 29.5343 27.3261 30.5642 28.39C30.941 28.7793 31.4597 28.999 32.0012 28.999H32.0001ZM32.0001 1.99973C37.2468 1.99973 41.4998 6.37949 41.4998 11.7821C41.4998 17.1845 32.0001 26.9988 32.0001 26.9988C32.0001 26.9988 22.5003 17.1843 22.5003 11.7821C22.5003 6.3796 26.7534 1.99973 32.0001 1.99973Z" fill="#AD2A47"/>
<path d="M36.5382 12.1915V8.99909C36.5378 8.33616 36.274 7.70095 35.8052 7.23216C35.3365 6.76342 34.7012 6.50005 34.0383 6.49915H29.9612H29.9616C29.2987 6.50004 28.6635 6.76342 28.1947 7.23216C27.7259 7.70091 27.4621 8.33616 27.4617 8.99909V18.9988C27.4599 19.2649 27.5648 19.5207 27.7523 19.7095C27.9402 19.8983 28.1951 20.0041 28.4616 20.0041C28.7277 20.0041 28.9826 19.8983 29.1705 19.7095C29.358 19.5207 29.4629 19.2649 29.4616 18.9988V14.6914H34.0387H34.0383C34.7012 14.6905 35.3364 14.4271 35.8052 13.9584C36.2739 13.4896 36.5378 12.8544 36.5382 12.1914L36.5382 12.1915ZM29.4616 8.99909C29.4616 8.7232 29.6853 8.49955 29.9616 8.4991H34.0388H34.0383C34.3146 8.49955 34.5383 8.7232 34.5383 8.99909V12.1915C34.5383 12.4673 34.3146 12.691 34.0383 12.6914H29.4612L29.4616 8.99909Z" fill="#AD2A47"/>
<path d="M1.00095 59.4975H62.9992C63.5514 59.4975 63.9991 59.0497 63.9991 58.4975C63.9991 57.9453 63.5514 57.4976 62.9992 57.4976H1.00095C0.448735 57.4976 0.000976562 57.9453 0.000976562 58.4975C0.000976562 59.0497 0.448735 59.4975 1.00095 59.4975Z" fill="#AD2A47"/>
<path d="M1.00095 63.998H62.9992C63.5514 63.998 63.9991 63.5502 63.9991 62.998C63.9991 62.4458 63.5514 61.998 62.9992 61.998H1.00095C0.448735 61.998 0.000976562 62.4458 0.000976562 62.998C0.000976562 63.5502 0.448735 63.998 1.00095 63.998Z" fill="#AD2A47"/>
<path d="M1.00095 54.4988H62.9992C63.5514 54.4988 63.9991 54.0511 63.9991 53.4989C63.9991 52.9467 63.5514 52.4989 62.9992 52.4989H1.00095C0.448735 52.4989 0.000976562 52.9467 0.000976562 53.4989C0.000976562 54.0511 0.448735 54.4988 1.00095 54.4988Z" fill="#AD2A47"/>
<path d="M1.00094 47.9984C0.448725 47.9984 0.000966395 48.4461 0.000966395 48.9983C0.000966395 49.5506 0.448725 49.9983 1.00094 49.9983H62.9992C63.5514 49.9983 63.9991 49.5506 63.9991 48.9983C63.9991 48.4461 63.5514 47.9984 62.9992 47.9984H58.9993V30.8869L62.4207 33.3149C62.6367 33.4685 62.905 33.5301 63.1671 33.4859C63.4287 33.4417 63.6617 33.2953 63.8153 33.0788C63.9688 32.8622 64.0304 32.5935 63.9858 32.3319C63.9412 32.0703 63.7943 31.8373 63.5778 31.6837L43.7121 17.5858C43.4112 18.1729 43.0826 18.7598 42.7326 19.3429L56.9996 29.4676V47.9997H20.0007V40.4999H48.9999C49.5302 40.4999 50.0387 40.2892 50.4141 39.9142C50.7891 39.5392 50.9998 39.0303 50.9998 38.5V33.5001C50.9998 32.9698 50.7891 32.4608 50.4141 32.0859C50.0387 31.7109 49.5302 31.5002 48.9999 31.5002H20.0007V31.0002C20.0038 29.9373 19.5838 28.9171 18.8333 28.1646C18.0824 27.4124 17.0638 26.9892 16.0008 26.9892C14.9383 26.9892 13.9192 27.4124 13.1688 28.1646C12.4184 28.9172 11.9983 29.9373 12.0009 31.0002V47.9997H7.00107V29.4676L21.2681 19.3429C20.9181 18.7599 20.5895 18.1729 20.2887 17.5858L0.422943 31.6837C0.206435 31.8373 0.0595591 32.0703 0.0149204 32.3319C-0.0297218 32.5935 0.0318848 32.8622 0.185453 33.0788C0.339026 33.2953 0.572047 33.4417 0.833651 33.4859C1.09526 33.5301 1.36399 33.4685 1.58005 33.3149L5.00144 30.8869V47.9984H1.00094ZM48.9996 33.4982V38.4981H43.1658L46.1582 33.4982H48.9996ZM43.8337 33.4982L40.8471 38.4981H38.1659L41.1663 33.4982H43.8337ZM38.8338 33.4982L35.8334 38.4981H33.1661L36.1744 33.4982H38.8338ZM33.8339 33.4982L30.8376 38.4981H28.1662L31.1568 33.4982H33.8339ZM28.8341 33.4982L25.8449 38.4981H23.1664L26.1726 33.4982H28.8341ZM23.8342 33.4982L20.85 38.4981H18.0005V33.4982H23.8342ZM14.0006 30.9983C13.9988 30.4666 14.2086 29.9559 14.5836 29.5791C14.959 29.2023 15.4688 28.9908 16.0005 28.9908C16.5321 28.9908 17.042 29.2024 17.4173 29.5791C17.7928 29.9559 18.0026 30.4666 18.0004 30.9983V31.4983C17.47 31.4983 16.9611 31.709 16.5861 32.084C16.2111 32.459 16.0004 32.9679 16.0004 33.4982V38.4981C16.0004 39.0284 16.2111 39.5373 16.5861 39.9123C16.9611 40.2873 17.47 40.498 18.0004 40.498V47.9978H14.0005L14.0006 30.9983Z" fill="#AD2A47"/>
</svg>
