<svg width="49" height="62" viewBox="0 0 49 62" fill="none" xmlns="http://www.w3.org/2000/svg">
<path d="M24.0501 61.4348C24.1645 61.4649 24.2812 61.4801 24.398 61.4801C24.5147 61.4801 24.6315 61.4649 24.7458 61.4348C38.9056 57.7139 48.796 43.7278 48.796 27.4211V6.3937C48.796 5.97439 48.6035 5.57794 48.2733 5.31921C47.944 5.05952 47.5123 4.9666 47.1058 5.06666C45.2166 5.52695 43.2824 5.76807 41.3679 5.78331L41.1539 5.78284C35.4522 5.78284 29.9448 3.87966 25.2266 0.279823C24.7368 -0.0932742 24.0592 -0.0932742 23.5694 0.279823C18.8506 3.87978 13.3428 5.78284 7.64206 5.78284H7.43907C5.51357 5.76759 3.57941 5.52648 1.69013 5.06619C1.28369 4.9666 0.851978 5.05952 0.522721 5.31873C0.193465 5.57747 0 5.97391 0 6.39323V27.4219C0 43.7285 9.89062 57.7151 24.0502 61.4356L24.0501 61.4348ZM2.73239 8.07829C4.28389 8.35608 5.85491 8.50333 7.42825 8.51571H7.64219C13.6151 8.51571 19.3873 6.63449 24.399 3.06453C29.4103 6.63449 35.1825 8.51571 41.1558 8.51571H41.3797C42.9445 8.50332 44.5146 8.35656 46.0646 8.07829V27.4211C46.0646 42.3506 37.1731 55.1552 24.3992 58.6975C11.6239 55.1533 2.73383 42.3506 2.73383 27.4211L2.73288 8.07829H2.73239Z" fill="#AD2A47"/>
<path d="M22.0142 31.3783C22.0147 31.3797 22.0162 31.3802 22.0171 31.3811L22.0376 31.4045C22.0552 31.425 22.0771 31.4388 22.0957 31.4578C22.1338 31.4969 22.1696 31.5379 22.2134 31.5727C22.2187 31.5774 22.2263 31.5779 22.232 31.5832C22.3411 31.668 22.4607 31.7313 22.587 31.7785C22.6151 31.789 22.6423 31.7971 22.6709 31.8057C22.7986 31.8438 22.9291 31.8705 23.0621 31.8705C23.0625 31.8705 23.0635 31.871 23.064 31.871H23.0644H23.0649C23.1564 31.871 23.2474 31.8595 23.3375 31.8409C23.3642 31.8357 23.3899 31.8266 23.4166 31.82C23.4795 31.8028 23.5409 31.7823 23.6019 31.7566C23.6319 31.7437 23.6615 31.7294 23.6906 31.7142C23.7458 31.6856 23.7992 31.6523 23.8511 31.6151C23.8778 31.596 23.905 31.5784 23.9312 31.557C23.9421 31.5479 23.9545 31.5417 23.9655 31.5322C24.0098 31.4931 24.0455 31.4483 24.0837 31.4049C24.0994 31.3873 24.118 31.3749 24.1327 31.3563L24.1537 31.3306C24.1537 31.3306 24.1537 31.3301 24.1542 31.3301L31.1349 22.5759C31.6047 21.9855 31.5085 21.1264 30.9191 20.6557C30.3301 20.1863 29.4695 20.2826 28.9988 20.872L23.0154 28.3759L19.0662 23.8687C18.5697 23.3003 17.7064 23.2436 17.1383 23.741C16.5713 24.2385 16.5141 25.1019 17.0111 25.669L22.0142 31.3783Z" fill="#AD2A47"/>
<path d="M24.3978 38.7961C31.8068 38.7961 37.8342 32.7684 37.8342 25.3609C37.8342 17.9523 31.8065 11.9244 24.3978 11.9244C16.989 11.9244 10.9614 17.9521 10.9614 25.3596C10.9614 32.7677 16.989 38.7961 24.3978 38.7961ZM24.3978 14.6556C30.3007 14.6556 35.1023 19.4572 35.1023 25.3591C35.1023 31.261 30.3007 36.0636 24.3978 36.0636C18.4949 36.0636 13.6933 31.262 13.6933 25.3601C13.6933 19.4577 18.4949 14.6556 24.3978 14.6556Z" fill="#AD2A47"/>
</svg>
