<svg width="83" height="64" viewBox="0 0 83 64" fill="none" xmlns="http://www.w3.org/2000/svg">
<path d="M77.3716 34.4027H71.5439C68.952 34.4027 66.8436 36.5111 66.8436 39.103V43.9202L56.2585 44.2126C54.3116 41.0448 52.9315 37.0221 52.637 32.0857C56.8798 30.1438 60.0631 25.6626 61.0795 20.1599L64.2525 18.452C64.6145 18.2574 64.7929 17.8605 64.7314 17.4771C64.7337 17.4423 64.7381 17.409 64.7359 17.3734C64.5301 13.7695 62.6371 9.72308 59.5419 6.27401C56.9686 3.40753 54.0369 1.42344 51.0632 0.538766C48.1649 -0.324439 45.279 -0.147503 42.7169 1.04884L5.56918 16.6442C4.60306 17.0136 3.72951 17.5385 2.96764 18.2218C-0.960529 21.7473 -0.99161 28.6528 2.88991 35.8161C3.13718 36.2721 3.70721 36.4424 4.16473 36.1951C4.29651 36.1233 4.40385 36.0248 4.48529 35.9101L10.1857 32.82C11.6826 40.0268 16.9498 45.366 23.2011 45.366C25.3577 45.366 27.4261 44.7441 29.2983 43.5552L33.8261 41.3224L33.9498 42.9341C33.9875 43.4249 34.3962 43.8017 34.8863 43.8017H34.8952L40.338 43.7507V54.6799C40.338 55.1988 40.7592 55.6201 41.2782 55.6201H41.8423V57.0911C41.8423 58.9048 43.3185 60.3809 45.1322 60.3809H46.4477C48.2614 60.3809 49.7376 58.9047 49.7376 57.0911V55.6201H50.6504L67.0031 57.1222C67.2096 57.8973 67.6153 58.5917 68.2201 59.1957L71.1348 62.1103C72.0513 63.0268 73.2544 63.4843 74.4572 63.4843C75.6602 63.4843 76.8647 63.0261 77.7812 62.1103L80.6958 59.1957C81.6086 58.2829 82.0721 57.1642 82.0721 55.8717V39.1023C82.0699 36.5104 79.9622 34.4027 77.371 34.4027L77.3716 34.4027ZM49.1957 37.4906L50.5075 36.4564C50.7526 36.2639 50.8858 35.9603 50.8629 35.6494L50.6689 33.0176L50.8096 32.948C51.1768 37.4261 52.3961 41.187 54.1106 44.2718L51.9327 44.3325C52.3413 41.4793 51.4078 39.1525 49.1958 37.4904L49.1957 37.4906ZM42.1886 43.0147L47.6559 38.7046C49.7235 40.0387 50.4913 41.8635 50.0264 44.3665H42.2183V43.239C42.2176 43.1598 42.2058 43.0858 42.1887 43.0147L42.1886 43.0147ZM51.3204 30.6042C51.3041 30.6108 51.2878 30.6182 51.2715 30.6257C51.2664 30.6279 51.2597 30.6308 51.2545 30.6331C51.2516 30.6338 51.2479 30.6353 51.2449 30.6375L49.258 31.6177C49.2572 31.6177 49.2557 31.6184 49.2557 31.6184L33.4976 39.3887C34.6317 37.7016 35.5 35.7435 36.0273 33.6468L58.8834 21.3421C57.6663 25.7596 54.876 29.2242 51.3211 30.6041L51.3204 30.6042ZM43.462 2.77511C43.4738 2.76993 43.4857 2.76549 43.4975 2.76031C48.0653 0.617787 53.5398 2.40052 58.1438 7.5309C60.8022 10.4937 62.5287 14.0331 62.8255 17.0869L31.7196 33.8305C30.4648 30.7707 28.5401 27.7547 26.1013 25.0372C22.7773 21.3334 18.827 18.5484 14.8774 17.098C14.8359 17.0514 14.79 17.007 14.7375 16.9677C14.5176 16.8012 14.2489 16.7494 13.9979 16.7967C13.9565 16.7834 13.9165 16.7686 13.8758 16.7553C13.0644 16.5043 12.273 16.3177 11.5037 16.1919L43.462 2.77511ZM19.7322 21.8218C20.6731 22.4933 21.5941 23.2395 22.484 24.0546C20.8228 24.806 19.6464 26.633 19.6464 28.7622C19.6464 31.5607 21.6771 33.8378 24.1719 33.8378C25.9339 33.8378 27.4714 32.7147 28.2178 31.0439C28.8567 32.1129 29.4112 33.1989 29.8746 34.2932C28.4725 36.2773 26.3774 37.4455 24.1719 37.4455C20.0891 37.4455 16.7689 33.5499 16.7689 28.7624C16.7689 25.9973 17.8661 23.461 19.7324 21.822L19.7322 21.8218ZM24.0387 25.5753C24.263 25.81 24.4836 26.0483 24.7027 26.2919C25.5282 27.2114 26.2892 28.1656 26.9813 29.1436L26.8014 29.1266C26.6489 30.7412 25.5192 31.9582 24.1718 31.9582C22.7134 31.9582 21.526 30.5242 21.526 28.7623C21.5267 27.0551 22.6416 25.6604 24.0386 25.5753L24.0387 25.5753ZM4.0671 33.9992C1.14072 28.0538 1.17465 22.3593 4.22404 19.6217C6.16586 17.879 9.12047 17.4341 12.5963 18.3439C10.7596 21.2733 9.7601 24.8719 9.7601 28.6343C9.7601 29.3849 9.80008 30.123 9.87781 30.8479L4.0671 33.9992ZM11.6405 28.6349C11.6405 25.0488 12.6347 21.642 14.4507 18.9442C15.6789 19.4106 16.9078 20.0198 18.1175 20.755C16.0771 22.7464 14.889 25.6402 14.889 28.7614C14.889 34.5854 19.0541 39.3234 24.1725 39.3234C26.6785 39.3234 29.0534 38.17 30.7842 36.1749C30.939 36.28 31.1233 36.3392 31.3136 36.3392C31.4165 36.3392 31.5201 36.3222 31.623 36.2859C31.9043 36.1875 32.1057 35.9676 32.1983 35.7055L33.6774 34.9097C31.7985 40.0481 27.7083 43.4832 23.2026 43.4832C16.827 43.4854 11.6404 36.824 11.6404 28.6347L11.6405 28.6349ZM35.6432 40.4266L48.851 33.9134L48.9531 35.2889L47.0047 36.8243C47.0039 36.825 47.0025 36.8265 47.0002 36.8273L40.6062 41.8673L35.7564 41.9125L35.6432 40.4266ZM47.859 57.0911C47.859 57.8684 47.2268 58.5014 46.4487 58.5014H45.1332C44.3559 58.5014 43.7229 57.8691 43.7229 57.0911V55.6201L47.859 55.6208L47.859 57.0911ZM49.755 53.7404H42.2193V46.2454H49.755V53.7404ZM80.1918 55.8725C80.1918 56.6587 79.9223 57.3109 79.3664 57.8662L76.4518 60.7808C75.3524 61.8802 73.5639 61.8802 72.4645 60.7808L69.5498 57.8662C69.3766 57.693 69.2337 57.5086 69.1153 57.3147L76.9722 58.0357C77.001 58.0379 77.0307 58.0402 77.0588 58.0402C77.5385 58.0402 77.9486 57.6744 77.9931 57.1858C78.0404 56.6691 77.6607 56.2109 77.1432 56.1635L51.6319 53.8212V46.219L55.2468 46.1191C58.2909 50.595 62.402 53.3631 66.1154 54.5794C67.6952 55.0969 69.2196 55.3493 70.6195 55.3493C73.1892 55.3493 75.339 54.4958 76.6427 52.8604C77.8553 51.339 79.3003 47.8063 75.3553 41.2479C75.088 40.803 74.5106 40.6587 74.0656 40.9274C73.6207 41.1947 73.4778 41.7721 73.7451 42.217C76.2363 46.3561 76.7425 49.7201 75.1739 51.69C73.6851 53.5578 70.3605 53.9917 66.7018 52.7938C63.6066 51.7803 60.2085 49.5727 57.5205 46.0569L73.3098 45.6216C73.8287 45.6075 74.2381 45.1752 74.2241 44.6555C74.21 44.1365 73.7799 43.7242 73.2594 43.7412L68.7242 43.8671V39.1016C68.7242 37.5462 69.9894 36.2817 71.5441 36.2817H77.3718C78.9272 36.2817 80.1917 37.5469 80.1917 39.1016L80.1924 55.8726L80.1918 55.8725Z" fill="#AD2A47"/>
</svg>
