<svg width="58" height="58" viewBox="0 0 58 58" fill="none" xmlns="http://www.w3.org/2000/svg">
<path d="M11.28 0C8.26664 0 5.80949 2.4576 5.80949 5.47051V15.7009L3.99475 15.7014C1.80104 15.7014 0.000579834 17.4943 0.000579834 19.6875V30.9451C0.00281195 31.4978 0.452363 31.9433 1.0046 31.9416H5.80952V46.2033C5.80952 49.0627 8.02243 51.4211 10.8233 51.6546V57.0042H10.8229C10.8251 57.5533 11.2698 57.9979 11.8189 58.0002H19.6957C20.2484 58.0024 20.6975 57.5564 20.6997 57.0042V51.6738H37.3088V57.0042C37.3111 57.5564 37.7606 58.0024 38.3129 58.0002H46.1878C46.7378 57.9988 47.1838 57.5542 47.1861 57.0042V51.6546C49.9861 51.4202 52.1977 49.0621 52.1977 46.2033V33.8787C52.1986 33.855 52.1986 33.8318 52.1977 33.8082V31.9407H57.0026L57.0022 31.9412C57.5522 31.9398 57.9982 31.4948 58.0004 30.9452V19.6872C58.0004 17.4934 56.2075 15.701 54.0142 15.701H52.1977V5.47058C52.1977 2.45721 49.7401 7.12803e-05 46.7271 7.12803e-05L11.28 0ZM11.28 2.00183H46.7269C48.6666 2.00183 50.1974 3.53086 50.1974 5.47063V8.64434L7.8111 8.64479V5.47107C7.8111 3.5313 9.34012 2.00227 11.2799 2.00227L11.28 2.00183ZM7.81121 10.6447H50.1975V33.2652C45.2886 35.943 37.6238 37.7224 29.0044 37.7224C20.3861 37.7224 12.7198 35.943 7.81121 33.2652V10.6447ZM3.99464 17.7032H5.80892V29.942H2.00047V19.688C2.00047 18.5675 2.87412 17.7037 3.99464 17.7037V17.7032ZM52.1981 17.7032H54.0146C55.1352 17.7032 55.999 18.567 55.999 19.6875V29.9416H52.1981V17.7032ZM7.81178 35.5158C13.1225 38.1403 20.6324 39.7228 29.0049 39.7228C37.3786 39.7228 44.8872 38.1411 50.1981 35.5158V43.6876H42.778C42.5128 43.6867 42.2579 43.7908 42.0699 43.9778C41.8815 44.1644 41.7753 44.4185 41.7744 44.6836C41.773 44.9501 41.8784 45.2064 42.0672 45.3948C42.2556 45.5832 42.5114 45.6885 42.778 45.6877H50.1981V46.2033C50.1981 48.143 48.6672 49.6738 46.7276 49.6738H36.7994V44.6836C36.8008 44.4171 36.695 44.1613 36.5066 43.9729C36.3182 43.7841 36.0624 43.6787 35.7959 43.6796H22.2062C21.6539 43.6818 21.2079 44.1314 21.2102 44.6836V49.6738H11.2807C9.34092 49.6738 7.8119 48.1429 7.8119 46.2033V45.6877H14.7864C15.0529 45.6885 15.3087 45.5832 15.4971 45.3948C15.686 45.2064 15.7913 44.9502 15.79 44.6836C15.7891 44.4185 15.6828 44.1644 15.4945 43.9778C15.3065 43.7908 15.0516 43.6868 14.7864 43.6876H7.81191L7.81178 35.5158ZM23.2095 45.6796H34.7992V49.6738H23.2095V45.6796ZM12.8229 51.6738H18.6978V56.0001H12.8229V51.6738ZM39.3086 51.6738H45.1836V56.0001H39.3086V51.6738Z" fill="#AD2A47"/>
</svg>
