<svg width="31" height="61" viewBox="0 0 31 61" fill="none" xmlns="http://www.w3.org/2000/svg">
<path d="M26.9809 3.51924H19.9425V1.17308C19.9425 0.862006 19.8189 0.563494 19.5989 0.343545C19.379 0.123596 19.0805 0 18.7694 0H11.7309C11.0831 0 10.5578 0.525271 10.5578 1.17308V3.51924H3.51935C2.58613 3.51924 1.69056 3.89001 1.03082 4.54987C0.371077 5.20973 0.000183105 6.10531 0.000183105 7.03841V57.4808C0.000183105 58.4141 0.370957 59.3096 1.03082 59.9694C1.69068 60.6291 2.58625 61 3.51935 61H26.9809C27.9142 61 28.8097 60.6292 29.4695 59.9694C30.1292 59.3095 30.5001 58.4139 30.5001 57.4808V7.03841C30.5001 6.10519 30.1293 5.20961 29.4695 4.54987C28.8096 3.89013 27.914 3.51924 26.9809 3.51924ZM28.154 57.4809C28.154 57.792 28.0304 58.0905 27.8105 58.3104C27.5905 58.5304 27.292 58.654 26.9809 58.654H3.51935C2.87155 58.654 2.34627 58.1287 2.34627 57.4809V7.03848C2.34627 6.39067 2.87155 5.8654 3.51935 5.8654H26.9809C27.292 5.8654 27.5905 5.98899 27.8105 6.20894C28.0304 6.42889 28.154 6.7274 28.154 7.03848V57.4809ZM21.7021 29.327C21.7078 29.405 21.7078 29.4836 21.7021 29.5616C21.6879 29.637 21.6686 29.7119 21.6434 29.7847L15.3088 43.8617C15.2517 43.9648 15.181 44.0596 15.0978 44.1429C15.0731 44.1733 15.0459 44.201 15.0155 44.2251C14.9391 44.2843 14.8563 44.3356 14.7694 44.3775H14.6636C14.5364 44.4278 14.4013 44.4561 14.2646 44.4597H14.2059C14.1101 44.4477 14.0153 44.4236 13.9247 44.3895C13.8775 44.3948 13.8304 44.3948 13.7838 44.3895C13.6848 44.3361 13.5937 44.2691 13.5141 44.19L13.4083 44.1198V44.1193C13.369 44.0633 13.3334 44.0046 13.303 43.9434C13.2554 43.8758 13.2124 43.8051 13.1737 43.7323V43.6265V43.627C13.1575 43.5139 13.1575 43.3992 13.1737 43.2866L13.5843 33.902H10.065C9.92415 33.8947 9.78486 33.8627 9.65445 33.8083L9.38475 33.8198C9.29939 33.7758 9.22031 33.7208 9.15014 33.6559C9.10457 33.6019 9.06477 33.5427 9.03283 33.4799C8.98569 33.416 8.94275 33.3495 8.904 33.2804C8.89248 33.1866 8.89248 33.0924 8.904 32.9986C8.89719 32.9483 8.89719 32.897 8.904 32.8462C8.89824 32.7682 8.89824 32.6896 8.904 32.6116C8.91761 32.5362 8.93751 32.4613 8.96265 32.3885L15.2973 18.3115C15.3256 18.2566 15.3606 18.2052 15.4025 18.1592C15.6209 17.8282 15.9917 17.6297 16.3881 17.6313C16.4609 17.6402 16.5322 17.6595 16.5992 17.6899C16.6694 17.6789 16.7406 17.6789 16.8102 17.6899C16.9092 17.7433 17.0003 17.8104 17.0799 17.8895L17.1857 17.9596C17.225 18.0157 17.2606 18.0748 17.2915 18.1356C17.3413 18.2016 17.3842 18.2723 17.4203 18.3472V18.4529V18.4524C17.4371 18.5655 17.4371 18.6797 17.4203 18.7928L17.0098 28.1775H20.529C20.5992 28.1717 20.6699 28.1717 20.7401 28.1775C20.8249 28.1843 20.9076 28.2042 20.9867 28.2361L21.1155 28.3299C21.2009 28.3738 21.28 28.4288 21.3501 28.4943C21.3957 28.5483 21.4355 28.6069 21.4675 28.6703C21.5146 28.7336 21.5575 28.8001 21.5963 28.8693C21.6078 28.963 21.6078 29.0573 21.5963 29.151C21.6418 29.2029 21.6775 29.2626 21.7021 29.327L21.7021 29.327Z" fill="#AD2A47"/>
</svg>
