<svg width="63" height="51" viewBox="0 0 63 51" fill="none" xmlns="http://www.w3.org/2000/svg">
<path d="M31.5 12.5994C17.8528 12.5994 6.00891 20.2542 0 31.4994C6.00848 42.7451 17.8523 50.3994 31.5 50.3994C45.1477 50.3994 56.9911 42.7447 63 31.4994C56.9915 20.2538 45.1477 12.5994 31.5 12.5994ZM31.5 47.2494C20.0341 47.2494 9.50484 41.2564 3.6225 31.4994C9.50512 21.7425 20.0334 15.7494 31.5 15.7494C42.9666 15.7494 53.4952 21.7425 59.3775 31.4994C53.4949 41.2564 42.9666 47.2494 31.5 47.2494ZM31.5 22.183C26.2787 22.183 22.0501 26.4116 22.0501 31.6329C22.0501 36.8542 26.2787 41.0827 31.5 41.0827C36.7213 41.0827 40.9499 36.8542 40.9499 31.6329C40.9499 26.4116 36.7213 22.183 31.5 22.183ZM31.5 37.933C28.0273 37.933 25.1999 35.1058 25.1999 31.6329C25.1999 28.16 28.0271 25.3328 31.5 25.3328C34.9729 25.3328 37.8001 28.16 37.8001 31.6329C37.8001 35.1058 34.9729 37.933 31.5 37.933ZM2.09391 14.1196L0.0306566 11.718C8.48855 4.43349 19.4664 0 31.5068 0C43.5471 0 54.5327 4.43348 62.9913 11.7257L60.928 14.1273C53.0217 7.30758 42.7523 3.14986 31.5149 3.14986C20.2776 3.14986 10.0162 7.29998 2.10881 14.1197L2.09391 14.1196Z" fill="#AD2A47"/>
</svg>
