<svg width="45" height="73" viewBox="0 0 45 73" fill="none" xmlns="http://www.w3.org/2000/svg">
<path d="M22.4998 63.0816C22.128 63.0816 21.7783 62.8899 21.5755 62.5744L3.61074 34.5781C-0.897516 27.5566 -1.20189 19.0014 2.79916 11.6877C6.80017 4.37288 14.1598 0 22.5003 0C30.8407 0 38.2006 4.37288 42.2014 11.6877C46.2024 19.0026 45.898 27.5684 41.3898 34.5781L23.425 62.5744C23.2222 62.8899 22.8725 63.0816 22.5007 63.0816H22.4998ZM22.4998 2.18657C14.9711 2.18657 8.32198 6.1313 4.71537 12.7356C1.10876 19.34 1.37952 27.0603 5.44796 33.4067L22.5008 59.9603L39.5536 33.3951C43.6221 27.0608 43.8929 19.3409 40.2862 12.7241C36.6796 6.13117 30.0299 2.18644 22.5018 2.18644L22.4998 2.18657Z" fill="#AD2A47"/>
<path d="M22.5001 31.422C16.8195 31.422 12.2101 26.801 12.2101 21.132C12.2101 15.4629 16.831 10.8419 22.5001 10.8419C28.1692 10.8419 32.7902 15.4629 32.7902 21.132C32.7902 26.801 28.1692 31.422 22.5001 31.422ZM22.5001 13.0283C18.0256 13.0283 14.3963 16.6687 14.3963 21.1321C14.3963 25.6066 18.0367 29.2359 22.5001 29.2359C26.9746 29.2359 30.6039 25.5955 30.6039 21.1321C30.6039 16.6576 26.9746 13.0283 22.5001 13.0283Z" fill="#AD2A47"/>
<path d="M22.4998 72.1315C9.88771 72.1315 0.00354004 67.826 0.00354004 62.3371C0.00354004 57.6824 6.91238 53.8504 17.2019 52.8133C17.8107 52.757 18.34 53.1967 18.3964 53.794C18.4527 54.3912 18.0246 54.9321 17.4157 54.9885C8.73734 55.8675 2.18941 59.0232 2.18941 62.3371C2.18941 65.9326 10.5297 69.9447 22.4998 69.9447C34.4577 69.9447 42.7985 65.9326 42.7985 62.3371C42.7985 59.0232 36.2505 55.8674 27.5838 54.9885C26.9866 54.9321 26.5468 54.3912 26.6032 53.794C26.6595 53.1967 27.2004 52.757 27.7976 52.8133C38.0766 53.8388 44.9857 57.6708 44.9857 62.326C44.9862 67.826 35.1133 72.1315 22.5011 72.1315H22.4998Z" fill="#AD2A47"/>
</svg>
