<svg width="71" height="43" viewBox="0 0 71 43" fill="none" xmlns="http://www.w3.org/2000/svg">
<path d="M2.57099 35.1969C2.57099 34.2828 2.60516 33.3602 2.68204 32.4546C2.71621 32.019 2.75893 31.5918 2.81018 31.1647C2.81872 31.0878 2.82727 31.0109 2.83581 30.934C2.87852 30.5496 2.79309 31.1903 2.85289 30.8059C2.88707 30.5752 2.92124 30.3446 2.95541 30.1139C3.22877 28.4053 3.63883 26.7139 4.17701 25.0652C4.45038 24.2366 4.75793 23.4164 5.08254 22.6049C5.09963 22.5622 5.17651 22.3743 5.08254 22.5964C5.12526 22.4939 5.16797 22.3914 5.21923 22.2803C5.29611 22.1095 5.373 21.9386 5.44989 21.7592C5.63782 21.3492 5.8343 20.9391 6.03933 20.5376C6.79963 19.0341 7.67953 17.5904 8.65334 16.215C8.89253 15.8818 9.13173 15.5487 9.38801 15.224C9.24278 15.412 9.36238 15.2497 9.39655 15.2155C9.46489 15.1301 9.53323 15.0361 9.60158 14.9507C9.73826 14.7798 9.88349 14.6004 10.0287 14.4296C10.5754 13.7718 11.1478 13.1311 11.7458 12.516C12.3181 11.9265 12.9076 11.3627 13.5141 10.816C13.8216 10.5426 14.1291 10.2778 14.4452 10.013C14.5904 9.89335 14.7357 9.77376 14.8809 9.6627C14.9663 9.59436 15.0518 9.52601 15.1457 9.45767C15.2055 9.41496 15.2653 9.3637 15.3251 9.32099C15.2141 9.40642 15.2141 9.40642 15.3337 9.31245C16.6663 8.31296 18.0587 7.39029 19.511 6.58737C20.2542 6.17732 21.006 5.80145 21.7834 5.44265C21.9542 5.36577 22.1251 5.28888 22.3045 5.21199C22.407 5.16928 22.5095 5.11802 22.6206 5.07531C22.3557 5.18637 22.706 5.04114 22.7316 5.0326C23.116 4.87883 23.509 4.72505 23.902 4.57984C25.5251 3.9904 27.1824 3.52055 28.8738 3.17883C29.2924 3.0934 29.711 3.01651 30.1381 2.94817C30.3517 2.914 30.5653 2.87983 30.7703 2.8542C30.8301 2.84565 31.0949 2.81148 30.8386 2.84565C30.9924 2.82857 31.1462 2.80294 31.3085 2.78586C32.1713 2.68334 33.0427 2.62354 33.9141 2.58938C35.6995 2.52103 37.4935 2.58938 39.2703 2.80295C39.3899 2.82003 39.501 2.82857 39.6206 2.84566C39.3729 2.81149 39.5779 2.83712 39.6291 2.84566C39.8598 2.87983 40.0904 2.914 40.3211 2.94817C40.7653 3.01651 41.201 3.10194 41.6367 3.18736C42.4824 3.35822 43.3281 3.56323 44.1654 3.80244C44.9684 4.03309 45.7714 4.28937 46.5573 4.57983C46.9502 4.72505 47.3347 4.87028 47.7276 5.03259C47.7533 5.04113 48.1035 5.18636 47.8387 5.0753C47.9241 5.10947 48.0095 5.15218 48.095 5.18636C48.3171 5.28032 48.5477 5.38283 48.7698 5.48535C50.3075 6.19441 51.7855 7.01451 53.1949 7.94566C53.8784 8.39841 54.5532 8.87681 55.2025 9.37229C54.9804 9.20143 55.2709 9.42354 55.2965 9.44917C55.3734 9.50897 55.4417 9.56877 55.5186 9.62003C55.6809 9.74817 55.8347 9.87631 55.997 10.013C56.3387 10.2949 56.6804 10.5939 57.0136 10.8929C58.2352 11.9864 59.3714 13.1739 60.4221 14.4381C60.5673 14.6089 60.704 14.7798 60.8492 14.9592C60.909 15.0361 60.9688 15.1044 61.0201 15.1813C61.0543 15.2325 61.208 15.429 61.0628 15.2325C61.3362 15.5913 61.601 15.9501 61.8573 16.3175C62.3357 16.9923 62.7799 17.6757 63.207 18.3847C63.6512 19.1279 64.0698 19.8797 64.4543 20.6485C64.6337 20.9988 64.8045 21.3576 64.9668 21.7164C65.0522 21.9043 65.1377 22.0922 65.2231 22.2887C65.2658 22.3912 65.3171 22.4937 65.3598 22.6048C65.2743 22.3998 65.3769 22.6475 65.4025 22.7159C66.0517 24.3048 66.5814 25.945 66.9829 27.6108C67.1879 28.4566 67.3587 29.3109 67.4954 30.1736C67.5296 30.3872 67.5638 30.6007 67.5894 30.8143C67.6406 31.1987 67.5638 30.5495 67.6065 30.9425C67.615 31.0193 67.6236 31.0962 67.6321 31.1731C67.6919 31.643 67.7346 32.1128 67.7688 32.5827C67.8371 33.454 67.8713 34.3339 67.8713 35.2139C67.8713 35.8802 68.4607 36.5294 69.1527 36.4953C69.8447 36.4611 70.4341 35.9314 70.4341 35.2139C70.4256 27.961 68.1703 20.751 63.9417 14.8473C59.7814 9.03813 53.9638 4.58741 47.2492 2.12711C40.3723 -0.39302 32.6667 -0.649202 25.6282 1.34972C18.8026 3.25469 12.6263 7.26975 8.13273 12.703C3.50252 18.307 0.691999 25.201 0.111055 32.4448C0.0341704 33.3589 0 34.2729 0 35.187C0 35.8534 0.589441 36.5026 1.2814 36.4684C1.98191 36.4428 2.57135 35.9132 2.57135 35.1956L2.57099 35.1969Z" fill="#AD2A47"/>
<path d="M1.29008 36.4793H6.02276C6.68909 36.4793 7.33834 35.8899 7.30417 35.1979C7.26999 34.5059 6.74034 33.9165 6.02276 33.9165H1.29008C0.623753 33.9165 -0.0255008 34.5059 0.00867783 35.1979C0.0428487 35.8899 0.572501 36.4793 1.29008 36.4793Z" fill="#AD2A47"/>
<path d="M64.3862 36.4793H69.1189C69.7853 36.4793 70.4345 35.8899 70.4003 35.1979C70.3662 34.5059 69.8365 33.9165 69.1189 33.9165H64.3862C63.7199 33.9165 63.0707 34.5059 63.1048 35.1979C63.139 35.8899 63.6687 36.4793 64.3862 36.4793Z" fill="#AD2A47"/>
<path d="M36.4857 6.01538V1.28269C36.4857 0.616367 35.8962 -0.0328861 35.2043 0.00129258C34.5123 0.0354712 33.9229 0.565115 33.9229 1.28269V6.01538C33.9229 6.6817 34.5123 7.33096 35.2043 7.29678C35.8962 7.2626 36.4857 6.73296 36.4857 6.01538Z" fill="#AD2A47"/>
<path d="M15.4801 13.6525C14.361 12.5419 13.242 11.4229 12.1313 10.3122C11.6444 9.82529 10.8072 9.82529 10.3202 10.3122C9.83328 10.7992 9.83328 11.6364 10.3202 12.1233C11.4393 13.2424 12.5498 14.3529 13.669 15.4721C14.156 15.9591 14.9932 15.9591 15.4801 15.4721C15.9671 14.9767 15.9671 14.148 15.4801 13.6526V13.6525Z" fill="#AD2A47"/>
<path d="M56.7492 15.4646C57.8683 14.3455 58.9788 13.235 60.098 12.1157C60.5849 11.6288 60.5849 10.7916 60.098 10.3047C59.6111 9.81772 58.7739 9.81772 58.2869 10.3047C57.1678 11.4238 56.0573 12.5342 54.9381 13.6535C54.4511 14.1404 54.4511 14.9776 54.9381 15.4646C55.425 15.9601 56.2537 15.9601 56.7492 15.4646Z" fill="#AD2A47"/>
<path d="M38.7413 36.9058C38.7413 37.0254 38.7413 37.145 38.7242 37.2561C38.7242 37.2988 38.6559 37.6661 38.7157 37.3757C38.6815 37.5636 38.6388 37.7516 38.5875 37.931C38.5534 38.042 38.5192 38.1445 38.4765 38.2556C38.3654 38.5887 38.5448 38.1189 38.4509 38.3068C38.3398 38.5204 38.2287 38.734 38.0921 38.939C38.0921 38.9305 37.8785 39.2209 37.9981 39.0757C38.1091 38.9305 37.8785 39.2038 37.887 39.2038C37.7504 39.3576 37.6051 39.4943 37.4514 39.631C37.4086 39.6737 37.2122 39.8189 37.4086 39.6737C37.3232 39.742 37.2292 39.8018 37.1353 39.8616C36.9473 39.9812 36.7509 40.0837 36.5458 40.1777C36.8021 40.0581 36.4689 40.2033 36.4348 40.2119C36.3493 40.246 36.2554 40.2717 36.1614 40.2973C36.0674 40.3229 35.982 40.3485 35.888 40.3656C35.8539 40.3742 35.478 40.434 35.777 40.3998C35.5805 40.4254 35.384 40.434 35.1875 40.434C35.0594 40.434 34.9313 40.4254 34.8117 40.4169C34.6579 40.3998 34.6494 40.3998 34.786 40.4169C34.7262 40.4083 34.6665 40.3998 34.6067 40.3827C34.3845 40.34 34.171 40.2802 33.9574 40.2118C33.9318 40.2033 33.5815 40.0495 33.8207 40.1606C33.7524 40.1264 33.6755 40.0923 33.6072 40.0581C33.3936 39.947 33.1971 39.8189 33.0006 39.6822C33.0433 39.7164 33.1629 39.8274 32.9835 39.6651C32.8639 39.5626 32.7529 39.4601 32.6418 39.3405C31.5398 38.2043 31.369 36.3505 32.2062 35.0008C32.2489 34.9325 32.2916 34.8727 32.3343 34.8044C32.5308 34.4968 32.172 34.9667 32.4197 34.6933C32.5479 34.5481 32.6845 34.4029 32.8298 34.2662C32.9152 34.1893 33.0006 34.1039 33.0946 34.0355C32.881 34.1978 33.1971 33.9757 33.2142 33.9586C33.4107 33.8305 33.6242 33.7109 33.8378 33.6169C33.573 33.7365 34.0172 33.5571 34.0343 33.5486C34.1283 33.5144 34.2222 33.4888 34.3247 33.4632C34.6408 33.3777 34.7519 33.3692 35.0423 33.3521C35.2559 33.3436 35.4609 33.3606 35.6745 33.3692C36.0419 33.3948 35.4438 33.3008 35.7941 33.3863C35.9052 33.4119 36.0162 33.4375 36.1273 33.4632C36.2383 33.4888 36.3408 33.5229 36.4519 33.5657C36.5202 33.5913 36.5971 33.6169 36.6655 33.6425C36.5288 33.5827 36.5288 33.5913 36.6655 33.6511C36.8619 33.7621 37.0584 33.8561 37.2464 33.9843C37.2805 34.0013 37.5624 34.232 37.3403 34.0441C37.4258 34.1124 37.5112 34.1893 37.5881 34.2576C37.7504 34.4114 37.8956 34.5737 38.0408 34.7446C37.8614 34.5224 38.0835 34.8129 38.1006 34.8385C38.1861 34.9581 38.2629 35.0863 38.3313 35.2144C38.3655 35.2827 38.3996 35.3511 38.4338 35.4109C38.4936 35.5476 38.4936 35.5476 38.4423 35.4109C38.468 35.4792 38.4936 35.5476 38.5192 35.6245C38.5961 35.838 38.6388 36.0601 38.6986 36.2822C38.7926 36.6325 38.6901 36.0345 38.7157 36.4018C38.7328 36.5898 38.7413 36.7435 38.7413 36.9059C38.7499 37.5722 39.3222 38.2214 40.0227 38.1873C40.7062 38.1531 41.3127 37.6234 41.3041 36.9059C41.2785 34.5652 39.9202 32.327 37.7504 31.3701C35.3243 30.2937 32.3001 30.8405 30.5744 32.9334C28.8658 35.0007 28.5668 38.059 30.1473 40.3143C31.6337 42.4329 34.282 43.4751 36.8106 42.7917C39.4588 42.0741 41.2785 39.6137 41.3041 36.9057C41.3126 36.2394 40.7061 35.5901 40.0227 35.6243C39.3222 35.6585 38.7498 36.1881 38.7413 36.9057L38.7413 36.9058Z" fill="#AD2A47"/>
<path d="M25.3214 15.5582C26.0902 17.4888 26.859 19.428 27.6364 21.3588C28.8751 24.4598 30.1053 27.5522 31.3439 30.6532C31.6258 31.3623 31.9077 32.0713 32.1896 32.7717C32.4459 33.4125 33.0439 33.8652 33.77 33.6687C34.385 33.4979 34.9232 32.7376 34.6669 32.0884C33.8981 30.1578 33.1293 28.2186 32.3519 26.2878C31.1132 23.1868 29.883 20.0944 28.6444 16.9934C28.3625 16.2843 28.0806 15.5753 27.7987 14.8748C27.5424 14.2341 26.9444 13.7814 26.2183 13.9779C25.6033 14.1487 25.0651 14.909 25.3214 15.5582Z" fill="#AD2A47"/>
</svg>
