<svg width="60" height="60" viewBox="0 0 60 60" fill="none" xmlns="http://www.w3.org/2000/svg">
<path d="M20.2598 3.896H16.3637C15.9332 3.896 15.5843 4.24494 15.5843 4.67543V12.4675C15.5843 12.898 15.9327 13.2469 16.3637 13.2469H20.2598C20.6902 13.2469 21.0392 12.898 21.0392 12.4675V4.67543C21.0392 4.24494 20.6902 3.896 20.2598 3.896ZM19.4803 11.6881H17.1426V5.45427H19.4803V11.6881Z" fill="#AD2A47"/>
<path d="M28.0517 3.896H24.1557C23.7252 3.896 23.3762 4.24494 23.3762 4.67543V12.4675C23.3762 12.898 23.7246 13.2469 24.1557 13.2469H28.0517C28.4822 13.2469 28.8311 12.898 28.8311 12.4675V4.67543C28.8311 4.24494 28.4822 3.896 28.0517 3.896ZM27.2723 11.6881H24.9345V5.45427H27.2723V11.6881Z" fill="#AD2A47"/>
<path d="M20.2598 15.5844H16.3637C15.9332 15.5844 15.5843 15.9333 15.5843 16.3638V24.1559C15.5843 24.5864 15.9327 24.9353 16.3637 24.9353H20.2598C20.6902 24.9353 21.0392 24.5864 21.0392 24.1559V16.3638C21.0392 15.9333 20.6902 15.5844 20.2598 15.5844ZM19.4803 23.3764H17.1426V17.1426H19.4803V23.3764Z" fill="#AD2A47"/>
<path d="M28.0517 15.5844H24.1557C23.7252 15.5844 23.3762 15.9333 23.3762 16.3638V24.1559C23.3762 24.5864 23.7246 24.9353 24.1557 24.9353H28.0517C28.4822 24.9353 28.8311 24.5864 28.8311 24.1559V16.3638C28.8311 15.9333 28.4822 15.5844 28.0517 15.5844ZM27.2723 23.3764H24.9345V17.1426H27.2723V23.3764Z" fill="#AD2A47"/>
<path d="M20.2598 27.2725H16.3637C15.9332 27.2725 15.5843 27.6214 15.5843 28.0519V35.844C15.5843 36.2745 15.9327 36.6234 16.3637 36.6234H20.2598C20.6902 36.6234 21.0392 36.2745 21.0392 35.844V28.0519C21.0392 27.6214 20.6902 27.2725 20.2598 27.2725ZM19.4803 35.0645H17.1426V28.8307H19.4803V35.0645Z" fill="#AD2A47"/>
<path d="M28.0517 27.2725H24.1557C23.7252 27.2725 23.3762 27.6214 23.3762 28.0519V35.844C23.3762 36.2745 23.7246 36.6234 24.1557 36.6234H28.0517C28.4822 36.6234 28.8311 36.2745 28.8311 35.844V28.0519C28.8311 27.6214 28.4822 27.2725 28.0517 27.2725ZM27.2723 35.0645H24.9345V28.8307H27.2723V35.0645Z" fill="#AD2A47"/>
<path d="M20.2598 38.9606H16.3637C15.9332 38.9606 15.5843 39.3095 15.5843 39.74V47.5321C15.5843 47.9626 15.9327 48.3115 16.3637 48.3115H20.2598C20.6902 48.3115 21.0392 47.9626 21.0392 47.5321V39.74C21.0392 39.3095 20.6902 38.9606 20.2598 38.9606ZM19.4803 46.7527H17.1426V40.5189H19.4803V46.7527Z" fill="#AD2A47"/>
<path d="M28.0517 38.9606H24.1557C23.7252 38.9606 23.3762 39.3095 23.3762 39.74V47.5321C23.3762 47.9626 23.7246 48.3115 24.1557 48.3115H28.0517C28.4822 48.3115 28.8311 47.9626 28.8311 47.5321V39.74C28.8311 39.3095 28.4822 38.9606 28.0517 38.9606ZM27.2723 46.7527H24.9345V40.5189H27.2723V46.7527Z" fill="#AD2A47"/>
<path d="M8.57136 52.2072C9.00185 52.2072 9.35079 51.8582 9.35079 51.4277V43.6356C9.35079 43.2052 9.00239 42.8562 8.57136 42.8562C8.14088 42.8562 7.79193 43.2052 7.79193 43.6356V51.4277C7.79193 51.8582 8.14088 52.2072 8.57136 52.2072Z" fill="#AD2A47"/>
<path d="M39.7399 13.2468H43.636C44.0665 13.2468 44.4154 12.8979 44.4154 12.4674V4.67531C44.4154 4.24482 44.067 3.89587 43.636 3.89587H39.7399C39.3095 3.89587 38.9605 4.24482 38.9605 4.67531V12.4674C38.9605 12.8979 39.3095 13.2468 39.7399 13.2468ZM40.5194 5.45474H42.8571V11.6885H40.5194V5.45474Z" fill="#AD2A47"/>
<path d="M31.9476 13.2468H35.8436C36.2741 13.2468 36.6231 12.8979 36.6231 12.4674V4.67531C36.6231 4.24482 36.2747 3.89587 35.8436 3.89587H31.9476C31.5171 3.89587 31.1682 4.24482 31.1682 4.67531V12.4674C31.1682 12.8979 31.5171 13.2468 31.9476 13.2468ZM32.727 5.45474H35.0648V11.6885H32.727V5.45474Z" fill="#AD2A47"/>
<path d="M39.7399 24.9351H43.636C44.0665 24.9351 44.4154 24.5861 44.4154 24.1556V16.3635C44.4154 15.9331 44.067 15.5841 43.636 15.5841H39.7399C39.3095 15.5841 38.9605 15.9331 38.9605 16.3635V24.1556C38.9605 24.5861 39.3095 24.9351 39.7399 24.9351ZM40.5194 17.143H42.8571V23.3768H40.5194V17.143Z" fill="#AD2A47"/>
<path d="M31.9476 24.9351H35.8436C36.2741 24.9351 36.6231 24.5861 36.6231 24.1556V16.3635C36.6231 15.9331 36.2747 15.5841 35.8436 15.5841H31.9476C31.5171 15.5841 31.1682 15.9331 31.1682 16.3635V24.1556C31.1682 24.5861 31.5171 24.9351 31.9476 24.9351ZM32.727 17.143H35.0648V23.3768H32.727V17.143Z" fill="#AD2A47"/>
<path d="M39.7399 36.6232H43.636C44.0665 36.6232 44.4154 36.2742 44.4154 35.8437V28.0517C44.4154 27.6212 44.067 27.2722 43.636 27.2722H39.7399C39.3095 27.2722 38.9605 27.6212 38.9605 28.0517V35.8437C38.9605 36.2742 39.3095 36.6232 39.7399 36.6232ZM40.5194 28.8311H42.8571V35.0649H40.5194V28.8311Z" fill="#AD2A47"/>
<path d="M31.9476 36.6232H35.8436C36.2741 36.6232 36.6231 36.2742 36.6231 35.8437V28.0517C36.6231 27.6212 36.2747 27.2722 35.8436 27.2722H31.9476C31.5171 27.2722 31.1682 27.6212 31.1682 28.0517V35.8437C31.1682 36.2742 31.5171 36.6232 31.9476 36.6232ZM32.727 28.8311H35.0648V35.0649H32.727V28.8311Z" fill="#AD2A47"/>
<path d="M39.7399 48.3113H43.636C44.0665 48.3113 44.4154 47.9623 44.4154 47.5318V39.7398C44.4154 39.3093 44.067 38.9603 43.636 38.9603H39.7399C39.3095 38.9603 38.9605 39.3093 38.9605 39.7398V47.5318C38.9605 47.9623 39.3095 48.3113 39.7399 48.3113ZM40.5194 40.5192H42.8571V46.753H40.5194V40.5192Z" fill="#AD2A47"/>
<path d="M31.9476 48.3113H35.8436C36.2741 48.3113 36.6231 47.9623 36.6231 47.5318V39.7398C36.6231 39.3093 36.2747 38.9603 35.8436 38.9603H31.9476C31.5171 38.9603 31.1682 39.3093 31.1682 39.7398V47.5318C31.1682 47.9623 31.5171 48.3113 31.9476 48.3113ZM32.727 40.5192H35.0648V46.753H32.727V40.5192Z" fill="#AD2A47"/>
<path d="M55.324 33.1166H48.3114V0.779431C48.3114 0.348946 47.963 0 47.5319 0H12.4676C12.0371 0 11.6881 0.348946 11.6881 0.779431V33.1166H4.67553C0.977349 33.1166 0 36.175 0 37.7921C0 38.2226 0.348403 38.5715 0.77943 38.5715H3.89599V59.2206C3.89599 59.6511 4.24439 60 4.67542 60H55.324C55.7545 60 56.1034 59.6511 56.1034 59.2206V38.5715H59.22C59.6504 38.5715 59.9994 38.2226 59.9994 37.7921C59.9994 36.1751 59.0221 33.1166 55.3239 33.1166H55.324ZM11.6883 58.4409H5.45449L5.45503 38.571H11.6888L11.6883 58.4409ZM11.6883 37.0126H1.66072C1.87867 36.0881 2.557 34.6754 4.6757 34.6754H11.6883V37.0126ZM46.7527 33.8961V58.4411H13.2467V1.55892H46.7527V33.8961ZM54.5448 58.4411H48.311L48.3115 38.5713H54.5453L54.5448 58.4411ZM55.3242 37.0129H48.3116V34.6751H55.3242C57.4505 34.6751 58.1267 36.0797 58.3414 37.0129H55.3242Z" fill="#AD2A47"/>
<path d="M51.4281 52.2072C51.8585 52.2072 52.2075 51.8582 52.2075 51.4277V43.6356C52.2075 43.2052 51.8591 42.8562 51.4281 42.8562C50.9976 42.8562 50.6486 43.2052 50.6486 43.6356V51.4277C50.6486 51.8582 50.9976 52.2072 51.4281 52.2072Z" fill="#AD2A47"/>
</svg>
